<?xml version="1.0" encoding="UTF-8"?>
<svg version="1.1" xmlns="http://www.w3.org/2000/svg" width="992" height="440">
<path d="M0 0 C7.52129944 5.4350026 10.86526672 11.3292536 12.7890625 20.37109375 C13.59055835 25.48572405 13.67787863 30.16454926 12.6640625 35.25390625 C12.10404842 38.49630663 11.76185833 41.05082612 12.25 44.3125 C14.51610916 46.96203828 16.81883421 48.69448343 19.734375 50.59375 C22.26920788 52.3256234 23.72179631 53.66361361 25.25 56.3125 C25.25 57.6325 25.25 58.9525 25.25 60.3125 C21.57118391 61.24043036 18.8906701 61.29558059 15.1875 60.5 C14.35089844 60.32855469 13.51429688 60.15710938 12.65234375 59.98046875 C10.31909387 59.33171147 8.36915814 58.47240873 6.25 57.3125 C8.18792168 61.49209284 10.31101582 64.82620259 13.3125 68.3125 C17.27818109 73.04821625 20.90052401 77.92874754 24.44750977 82.98291016 C26.87956318 86.43398036 29.38286405 89.79895587 32.00292969 93.109375 C45.48751023 110.17365233 59.43793143 130.64777439 57.25 153.3125 C54.65517238 166.31948401 48.00947904 180.30166681 39.25 190.3125 C38.59 190.3125 37.93 190.3125 37.25 190.3125 C36.9314817 192.69161886 36.9314817 192.69161886 37.25 195.3125 C38.82202392 196.9816667 38.82202392 196.9816667 41.0625 198.1875 C41.87203125 198.6825 42.6815625 199.1775 43.515625 199.6875 C44.41796875 200.22375 45.3203125 200.76 46.25 201.3125 C48.27383815 202.59945349 50.29470465 203.89109263 52.3125 205.1875 C53.95771339 206.23014553 55.60332211 207.27216892 57.25 208.3125 C55.94721449 212.57501183 54.3042834 216.30269046 52.125 220.1875 C51.58617187 221.15429688 51.04734375 222.12109375 50.4921875 223.1171875 C50.08226562 223.84164062 49.67234375 224.56609375 49.25 225.3125 C43.52682954 223.32133731 38.54840339 219.99195057 33.40039062 216.85742188 C32.66884766 216.41849609 31.93730469 215.97957031 31.18359375 215.52734375 C30.52415771 215.12636475 29.86472168 214.72538574 29.18530273 214.31225586 C27.15087775 213.26129455 25.52689302 212.5899185 23.25 212.3125 C22.26 212.9725 21.27 213.6325 20.25 214.3125 C17.76953125 214.5078125 17.76953125 214.5078125 15.0625 214.4375 C14.16144531 214.41945313 13.26039063 214.40140625 12.33203125 214.3828125 C11.64496094 214.35960937 10.95789063 214.33640625 10.25 214.3125 C10.25 213.6525 10.25 212.9925 10.25 212.3125 C8.93 212.3125 7.61 212.3125 6.25 212.3125 C5.92 211.6525 5.59 210.9925 5.25 210.3125 C4.26 209.9825 3.27 209.6525 2.25 209.3125 C1.22726922 206.30112604 0.39297577 203.40456132 -0.02050781 200.24633789 C-1.08303425 197.42964715 -2.61674332 196.97053033 -5.296875 195.68359375 C-6.27205078 195.21139404 -7.24722656 194.73919434 -8.25195312 194.25268555 C-9.32380859 193.75679932 -10.39566406 193.26091309 -11.5 192.75 C-12.61310547 192.22768799 -13.72621094 191.70537598 -14.87304688 191.16723633 C-40.08400666 179.55388679 -66.43388239 170.44343443 -93.75 165.3125 C-94.08 166.3025 -94.41 167.2925 -94.75 168.3125 C-96.07 167.9825 -97.39 167.6525 -98.75 167.3125 C-98.75 166.6525 -98.75 165.9925 -98.75 165.3125 C-99.46285156 165.19132813 -100.17570313 165.07015625 -100.91015625 164.9453125 C-106.30234841 164.00186031 -111.52235672 162.93887791 -116.75 161.3125 C-116.75 160.3225 -116.75 159.3325 -116.75 158.3125 C-125.99 158.3125 -135.23 158.3125 -144.75 158.3125 C-147.42562599 152.96124802 -146.37742063 143.96539809 -145.03125 138.2734375 C-143.14035758 133.22597467 -140.88687561 129.75989634 -136.75 126.3125 C-131.98430056 128.55978278 -127.81508402 130.89059804 -123.62768555 134.07055664 C-115.50024891 140.11943447 -106.13239033 144.35150677 -95.75 143.3125 C-92.46321956 141.88623649 -90.29432788 140.39452892 -87.6953125 137.94921875 C-85.75 136.3125 -85.75 136.3125 -81.75 136.3125 C-81.54117188 135.48363281 -81.33234375 134.65476563 -81.1171875 133.80078125 C-79.38054269 129.36985606 -76.83237963 126.18922611 -73.875 122.5 C-68.56314539 115.73280182 -63.50719263 108.83942745 -58.62158203 101.75854492 C-58.15606934 101.08799072 -57.69055664 100.41743652 -57.2109375 99.7265625 C-56.80665527 99.1382666 -56.40237305 98.5499707 -55.98583984 97.94384766 C-54.75 96.3125 -54.75 96.3125 -53.16748047 94.7722168 C-49.59283588 91.09105937 -49.38514992 85.5016777 -49 80.625 C-48.90203125 79.50738281 -48.8040625 78.38976562 -48.703125 77.23828125 C-48.48910312 74.11743682 -48.48910312 74.11743682 -50.75 71.3125 C-51.04603835 69.69525348 -51.2918022 68.06838279 -51.5 66.4375 C-52.168579 62.65619254 -52.73022922 60.82141985 -55.875 58.5625 C-58.75 56.3125 -58.75 56.3125 -59.4375 53.375 C-58.50069946 49.20197943 -56.62247684 47.46521848 -53.75 44.3125 C-52.74503148 41.29759443 -52.64664697 39.27068308 -52.6875 36.125 C-52.69652344 35.22394531 -52.70554687 34.32289063 -52.71484375 33.39453125 C-52.72644531 32.70746094 -52.73804688 32.02039063 -52.75 31.3125 C-53.99136719 30.98636719 -55.23273438 30.66023438 -56.51171875 30.32421875 C-58.15375399 29.883215 -59.79567514 29.44178633 -61.4375 29 C-62.25412109 28.78666016 -63.07074219 28.57332031 -63.91210938 28.35351562 C-72.44444779 26.03907565 -72.44444779 26.03907565 -75.75 23.3125 C-75.75 21.9925 -75.75 20.6725 -75.75 19.3125 C-73.00914515 17.94207257 -70.48390269 18.27741188 -67.47802734 18.27709961 C-60.10917179 18.41816735 -60.10917179 18.41816735 -53.5078125 15.75 C-52.07187405 13.67316246 -50.92627599 11.54510278 -49.75 9.3125 C-37.25692637 -6.21708458 -17.09691655 -10.49258925 0 0 Z M-88.75 145.3125 C-85.83235 147.2576 -84.12462715 147.76526317 -80.75 148.3125 C-81.08 146.0025 -81.41 143.6925 -81.75 141.3125 C-84.14175599 141.3125 -86.83498484 144.00865989 -88.75 145.3125 Z " fill="#080603" transform="translate(916.75,115.6875)"/>
<path d="M0 0 C4 5.22222222 4 5.22222222 4 8 C4.81984375 7.96519531 5.6396875 7.93039063 6.484375 7.89453125 C7.56203125 7.86746094 8.6396875 7.84039062 9.75 7.8125 C10.81734375 7.77769531 11.8846875 7.74289063 12.984375 7.70703125 C16.34736544 8.03374664 17.63641253 8.63089013 20 11 C20.495 12.485 20.495 12.485 21 14 C22.99031797 15.14662792 22.99031797 15.14662792 25.4375 16.125 C37.4947386 21.8952499 46.39545929 32.54065456 51 45 C52.093125 44.938125 53.18625 44.87625 54.3125 44.8125 C58 45 58 45 60 46.125 C61 48 61 48 61 51.0625 C60 54 60 54 57.4375 55.375 C56.633125 55.58125 55.82875 55.7875 55 56 C55.38848051 56.80643039 55.38848051 56.80643039 55.78480911 57.6291523 C58.38318128 63.21365147 60.14938308 68.67592507 61.56542969 74.65966797 C61.79034592 75.57965576 62.01526215 76.49964355 62.24699402 77.44750977 C62.98086896 80.46032237 63.70196255 83.47601052 64.421875 86.4921875 C64.93142553 88.60541222 65.44138099 90.71853933 65.95172119 92.83157349 C67.01651927 97.24976763 68.07465863 101.66949267 69.12841797 106.09033203 C70.4746166 111.73458573 71.8399933 117.37399835 73.21076584 123.01232719 C74.26789096 127.37188569 75.31336767 131.7341763 76.35556793 136.09732437 C76.85403396 138.17691146 77.35636672 140.2555759 77.86275482 142.33324814 C78.5712627 145.24661842 79.26358531 148.16340367 79.95214844 151.08154297 C80.16093124 151.92552643 80.36971405 152.76950989 80.58482361 153.6390686 C82.24748238 160.81126619 83.36105 168.43534523 80.6875 175.4375 C73.84997096 181.95700444 62.27068158 183.34843441 53.3359375 185.48828125 C52.06328033 185.79573776 50.79062317 186.10319427 49.47940063 186.41996765 C46.8063852 187.0640828 44.13213009 187.70273139 41.45703125 188.33813477 C38.05005652 189.14842517 34.64821109 189.97841436 31.24718285 190.81326008 C27.96742718 191.61408723 24.68267118 192.39352401 21.3984375 193.17578125 C19.58404678 193.62405022 19.58404678 193.62405022 17.73300171 194.08137512 C4.57080814 197.15576413 4.57080814 197.15576413 -1 195 C-6.51993324 191.32703699 -8.11769165 188.27676273 -9.57104492 181.92602539 C-9.86983567 180.74356153 -9.86983567 180.74356153 -10.17466259 179.53720951 C-10.80345383 177.02934382 -11.40178308 174.51531134 -12 172 C-12.39766057 170.40330707 -12.79758789 168.80717684 -13.19985962 167.2116394 C-14.45349793 162.20999693 -15.66163255 157.19794377 -16.86328125 152.18359375 C-17.07934713 151.28459917 -17.29541302 150.38560459 -17.51802635 149.45936775 C-18.65630479 144.72303065 -19.79088825 139.98582786 -20.92211914 135.24780273 C-22.0841129 130.38402155 -23.25868034 125.52336608 -24.4360323 120.66328335 C-25.34793457 116.8892569 -26.25072046 113.11309199 -27.15105247 109.33629036 C-27.58025704 107.54265765 -28.01281374 105.7498234 -28.44890785 103.95785332 C-29.05673789 101.45643991 -29.65154513 98.95225382 -30.2434082 96.44702148 C-30.42256775 95.72219574 -30.60172729 94.99737 -30.78631592 94.25057983 C-31.98895298 89.07474726 -32.14686666 84.31359288 -32 79 C-32.928125 79.04125 -33.85625 79.0825 -34.8125 79.125 C-38 79 -38 79 -41 77 C-41.3125 73.5 -41.3125 73.5 -41 70 C-39 68 -39 68 -36.375 67.875 C-35.59125 67.91625 -34.8075 67.9575 -34 68 C-34.15984375 67.4534375 -34.3196875 66.906875 -34.484375 66.34375 C-37.24815745 53.78110251 -33.41810692 40.80120432 -27 30 C-26.45601562 29.31679687 -25.91203125 28.63359375 -25.3515625 27.9296875 C-23.69161383 25.93134008 -23.69161383 25.93134008 -23.875 22.625 C-22.6873302 17.70465367 -20.29838958 16.62966807 -16.12890625 14.06640625 C-14 13 -14 13 -12 13 C-11.67 9.04 -11.34 5.08 -11 1 C-2.95471698 -1.63018868 -2.95471698 -1.63018868 0 0 Z " fill="#080505" transform="translate(123,127)"/>
<path d="M0 0 C2.34532032 2.34532032 2.55952843 3.59223461 3.296875 6.78515625 C3.53027588 7.77805664 3.76367676 8.77095703 4.00415039 9.79394531 C4.25028076 10.87256836 4.49641113 11.95119141 4.75 13.0625 C5.28495581 15.3503073 5.8201178 17.63806639 6.35546875 19.92578125 C6.62794434 21.10092285 6.90041992 22.27606445 7.18115234 23.48681641 C8.20374501 27.87414749 9.25501855 32.25421664 10.3112793 36.63354492 C11.05858384 39.73375372 11.79891708 42.83557539 12.5390625 45.9375 C13.50824418 49.98594752 14.50517133 54.02612959 15.5234375 58.0625 C15.7618335 59.02188477 16.00022949 59.98126953 16.24584961 60.96972656 C16.69387752 62.77069438 17.14992004 64.56969503 17.61547852 66.36621094 C17.81326904 67.16833008 18.01105957 67.97044922 18.21484375 68.796875 C18.39136475 69.49135742 18.56788574 70.18583984 18.74975586 70.90136719 C19.05403724 73.4531747 18.60911177 75.51805236 18 78 C-0.89351812 82.80332563 -19.79215075 87.52123633 -38.83422852 91.70336914 C-45.15561449 93.09781156 -51.39169938 94.59923186 -57.59545898 96.45361328 C-60.13769381 97.03128833 -62.40174511 97.09669272 -65 97 C-65.24379395 96.02264893 -65.48758789 95.04529785 -65.73876953 94.03833008 C-67.45790623 87.15158822 -69.18335509 80.26661964 -70.9296875 73.38671875 C-74.27104169 60.18650585 -77.53488099 46.97807158 -80.5 33.6875 C-80.75507324 32.54949951 -81.01014648 31.41149902 -81.27294922 30.23901367 C-83 22.38365954 -83 22.38365954 -83 19 C-65.52726702 14.86921339 -48.04892476 10.76288376 -30.556427 6.71652222 C-28.8659409 6.32536687 -27.17557016 5.93371259 -25.48532104 5.54153442 C-20.95742457 4.49138147 -16.42753404 3.45123571 -11.89306641 2.42980957 C-10.17014921 2.03863138 -8.45012808 1.63475241 -6.73046875 1.22949219 C-5.82941406 1.02743164 -4.92835938 0.82537109 -4 0.6171875 C-3.2575 0.44558105 -2.515 0.27397461 -1.75 0.09716797 C-1.1725 0.06510254 -0.595 0.03303711 0 0 Z " fill="#E0E4E7" transform="translate(180,204)"/>
<path d="M0 0 C2.2803232 1.90357415 2.91290566 3.70076376 3.796875 6.5 C2.63671875 6.43039063 2.63671875 6.43039063 1.453125 6.359375 C-6.44891447 6.08554195 -11.84843614 6.68205186 -17.8828125 11.97265625 C-23.5787614 17.96615472 -26.36837554 25.16159909 -26.765625 33.375 C-26.43691362 42.48500101 -22.72790307 51.12021699 -16.203125 57.5 C-8.1433427 64.62000531 0.89976706 70.49500407 9.796875 76.5 C10.25861518 71.92382495 9.00846392 69.8190923 6.296875 66.1875 C5.6471875 65.30449219 4.9975 64.42148438 4.328125 63.51171875 C3.57015625 62.51591797 3.57015625 62.51591797 2.796875 61.5 C5.56373989 59.65542341 8.33299465 58.31913974 11.34570312 56.93554688 C19.11429702 53.31020306 24.75502706 49.66473128 29.796875 42.5 C33.13301912 45.23420986 34.61462956 48.91531218 36.359375 52.75 C36.66294922 53.39324219 36.96652344 54.03648437 37.27929688 54.69921875 C40.64196262 61.98133151 42.1427336 68.56310819 42.109375 76.5625 C42.12548828 77.33916016 42.14160156 78.11582031 42.15820312 78.91601562 C42.16242726 83.90471427 41.36924885 87.10417128 38.796875 91.5 C38.466875 92.53125 38.136875 93.5625 37.796875 94.625 C36.80408435 97.47927312 35.62532708 99.1382494 33.796875 101.5 C33.10373592 103.15583225 32.43213076 104.82110979 31.796875 106.5 C30.796875 107.5 30.796875 107.5 28.13671875 107.5546875 C19.54647962 107.10101241 14.00852544 105.87468207 7.98046875 99.61328125 C6.5242502 97.94758347 5.13616364 96.26035287 3.796875 94.5 C1.64392849 99.78830549 -0.48246394 105.05123997 -2.203125 110.5 C-9.38820165 108.24439382 -16.19800786 105.42794201 -23.078125 102.375 C-25.11670808 101.47547522 -27.15574968 100.57698864 -29.1953125 99.6796875 C-30.08589355 99.28507324 -30.97647461 98.89045898 -31.89404297 98.48388672 C-34.29113145 97.42568789 -34.29113145 97.42568789 -37.203125 96.5 C-38.04893999 93.90347237 -38.6675403 91.47752458 -39.203125 88.8125 C-39.37118652 88.00941406 -39.53924805 87.20632813 -39.71240234 86.37890625 C-43.51082516 67.56354689 -46.203125 47.70974872 -46.203125 28.5 C-46.863125 28.5 -47.523125 28.5 -48.203125 28.5 C-48.13309982 33.33444554 -48.04462217 38.16811779 -47.94067383 43.00195312 C-47.90788365 44.63858283 -47.87971725 46.27531321 -47.85668945 47.91210938 C-47.64745083 62.40744881 -46.02174906 75.73250268 -41.203125 89.5 C-41.203125 90.82 -41.203125 92.14 -41.203125 93.5 C-44.173125 92.84 -47.143125 92.18 -50.203125 91.5 C-51.50238291 87.16914029 -52.546746 82.98525648 -53.203125 78.5 C-54.688125 78.005 -54.688125 78.005 -56.203125 77.5 C-56.17992187 76.58476562 -56.15671875 75.66953125 -56.1328125 74.7265625 C-56.11476563 73.53804688 -56.09671875 72.34953125 -56.078125 71.125 C-56.05492187 69.94164062 -56.03171875 68.75828125 -56.0078125 67.5390625 C-55.87446271 64.38846183 -55.87446271 64.38846183 -58.203125 62.5 C-58.44842081 59.92420615 -58.57654293 57.44770993 -58.6171875 54.8671875 C-58.63655365 54.11535187 -58.6559198 53.36351624 -58.6758728 52.58889771 C-58.73571647 50.18438101 -58.78207226 47.77981656 -58.828125 45.375 C-58.86630046 43.74607272 -58.90535193 42.11716572 -58.9453125 40.48828125 C-59.0430737 36.49229223 -59.12260121 32.49652266 -59.203125 28.5 C-59.533125 36.75 -59.863125 45 -60.203125 53.5 C-66.52413137 50.14440403 -72.49457654 46.8131255 -78.203125 42.5 C-75.9772932 38.23382239 -73.48016996 34.34197855 -70.578125 30.5 C-69.98773437 29.71625 -69.39734375 28.9325 -68.7890625 28.125 C-61.28120083 20.50372652 -53.97727207 17.38168837 -43.578125 15.4375 C-29.38371983 12.46041502 -16.81629042 8.77698241 -4.65625 0.625 C-2.203125 -0.5 -2.203125 -0.5 0 0 Z " fill="#EF6768" transform="translate(930.203125,187.5)"/>
<path d="M0 0 C0.69480469 -0.03287109 1.38960937 -0.06574219 2.10546875 -0.09960938 C6.00508979 -0.14000093 8.51742684 0.35798194 11.5078125 2.77734375 C14.125 5.4375 14.125 5.4375 16.125 8.4375 C16.89199219 8.86417969 17.65898438 9.29085937 18.44921875 9.73046875 C21.78901376 11.8611117 23.73341001 14.53865276 25.9375 17.75 C26.36764404 18.36593018 26.79778809 18.98186035 27.2409668 19.61645508 C37.95258282 35.20004572 48.01030888 51.9076336 46.125 71.4375 C43.53017238 84.44448401 36.88447904 98.42666681 28.125 108.4375 C27.465 108.4375 26.805 108.4375 26.125 108.4375 C25.8064817 110.81661886 25.8064817 110.81661886 26.125 113.4375 C27.69702392 115.1066667 27.69702392 115.1066667 29.9375 116.3125 C30.74703125 116.8075 31.5565625 117.3025 32.390625 117.8125 C33.29296875 118.34875 34.1953125 118.885 35.125 119.4375 C37.14883815 120.72445349 39.16970465 122.01609263 41.1875 123.3125 C42.83271339 124.35514553 44.47832211 125.39716892 46.125 126.4375 C44.82221449 130.70001183 43.1792834 134.42769046 41 138.3125 C40.46117187 139.27929688 39.92234375 140.24609375 39.3671875 141.2421875 C38.95726562 141.96664062 38.54734375 142.69109375 38.125 143.4375 C32.43912127 141.45195505 27.49024136 138.16951118 22.36328125 135.0703125 C18.69540936 132.87608118 15.18090333 130.8538472 11.125 129.4375 C11.82625 128.756875 12.5275 128.07625 13.25 127.375 C14.21056129 126.39801886 15.16869318 125.41864596 16.125 124.4375 C16.65222656 123.91800781 17.17945313 123.39851563 17.72265625 122.86328125 C21.93623561 118.42194084 23.33130924 114.47228662 24.125 108.4375 C23.01125 108.375625 21.8975 108.31375 20.75 108.25 C15.27960873 107.58810212 10.89940073 105.04393305 6.125 102.4375 C4.79439325 101.76540782 3.46199282 101.09679692 2.125 100.4375 C0.64314875 102.06005228 -0.83540256 103.68561888 -2.3125 105.3125 C-3.13621094 106.21742188 -3.95992187 107.12234375 -4.80859375 108.0546875 C-6.88407942 110.24887927 -6.88407942 110.24887927 -7.875 112.4375 C-8.535 112.1075 -9.195 111.7775 -9.875 111.4375 C-9.2253125 110.60605469 -9.2253125 110.60605469 -8.5625 109.7578125 C-8.005625 109.03335938 -7.44875 108.30890625 -6.875 107.5625 C-6.318125 106.84320313 -5.76125 106.12390625 -5.1875 105.3828125 C-3.68856623 103.5522915 -3.68856623 103.5522915 -3.875 101.4375 C-17.04827036 95.30716227 -30.25865161 89.51421261 -43.875 84.4375 C-43.215 86.0875 -42.555 87.7375 -41.875 89.4375 C-44.33286266 88.99859595 -45.70537772 88.58289053 -47.625 86.9375 C-50.52231992 85.00595338 -52.67102375 84.9377161 -56.125 84.75 C-57.20265625 84.68425781 -58.2803125 84.61851562 -59.390625 84.55078125 C-60.21046875 84.51339844 -61.0303125 84.47601563 -61.875 84.4375 C-61.875 83.7775 -61.875 83.1175 -61.875 82.4375 C-58.41 81.4475 -58.41 81.4475 -54.875 80.4375 C-62.465 77.7975 -70.055 75.1575 -77.875 72.4375 C-72.72826053 71.15081513 -68.32820051 71.84572618 -63.08984375 72.37890625 C-59.72006723 72.74571242 -59.72006723 72.74571242 -56.875 70.4375 C-57.473125 70.7675 -58.07125 71.0975 -58.6875 71.4375 C-60.875 72.4375 -60.875 72.4375 -63.875 72.4375 C-63.730625 71.591875 -63.58625 70.74625 -63.4375 69.875 C-62.8691203 66.40156851 -62.36297607 62.92304338 -61.875 59.4375 C-64.02030955 62.41328174 -64.02030955 62.41328174 -65.25 66.0625 C-65.78625 67.17625 -66.3225 68.29 -66.875 69.4375 C-68.855 69.9325 -68.855 69.9325 -70.875 70.4375 C-70.875 65.8175 -70.875 61.1975 -70.875 56.4375 C-71.535 56.4375 -72.195 56.4375 -72.875 56.4375 C-72.98457031 57.06398437 -73.09414063 57.69046875 -73.20703125 58.3359375 C-73.36558594 59.15320313 -73.52414062 59.97046875 -73.6875 60.8125 C-73.83832031 61.62460937 -73.98914063 62.43671875 -74.14453125 63.2734375 C-74.875 65.4375 -74.875 65.4375 -77.875 67.4375 C-78.205 63.4775 -78.535 59.5175 -78.875 55.4375 C-80.195 58.0775 -81.515 60.7175 -82.875 63.4375 C-84.195 63.4375 -85.515 63.4375 -86.875 63.4375 C-86.78766424 61.83232903 -86.67947776 60.22828338 -86.5625 58.625 C-86.50449219 57.73167969 -86.44648437 56.83835938 -86.38671875 55.91796875 C-85.8040429 53.09354766 -85.11414391 52.19011387 -82.875 50.4375 C-80.57870006 49.28935003 -78.79801914 49.12980191 -76.25 48.875 C-75.43273437 48.79121094 -74.61546875 48.70742187 -73.7734375 48.62109375 C-73.14695312 48.56050781 -72.52046875 48.49992187 -71.875 48.4375 C-71.875 48.1075 -71.875 47.7775 -71.875 47.4375 C-76.64503402 47.05589728 -79.96965992 46.9765996 -84.3125 49.1875 C-86.65500464 51.24433334 -87.84021967 52.54011508 -88.875 55.4375 C-89.865 55.4375 -90.855 55.4375 -91.875 55.4375 C-90.43507449 51.33521221 -88.43006592 48.13351883 -85.875 44.625 C-85.17375 43.64917969 -84.4725 42.67335937 -83.75 41.66796875 C-83.13125 40.93191406 -82.5125 40.19585937 -81.875 39.4375 C-81.215 39.4375 -80.555 39.4375 -79.875 39.4375 C-79.7203125 38.509375 -79.7203125 38.509375 -79.5625 37.5625 C-78.875 35.4375 -78.875 35.4375 -75.875 33.4375 C-71.80186488 33.71685219 -68.48260773 36.36367596 -65.125 38.5 C-64.22201172 39.06557617 -64.22201172 39.06557617 -63.30078125 39.64257812 C-61.82250857 40.56943163 -60.34833911 41.50282389 -58.875 42.4375 C-58.85518066 41.7261792 -58.83536133 41.0148584 -58.81494141 40.28198242 C-58.71975133 37.06261184 -58.61004771 33.8438955 -58.5 30.625 C-58.45359375 28.94567383 -58.45359375 28.94567383 -58.40625 27.23242188 C-58.36757813 26.15927734 -58.32890625 25.08613281 -58.2890625 23.98046875 C-58.2576416 22.99071045 -58.2262207 22.00095215 -58.19384766 20.98120117 C-57.875 18.4375 -57.875 18.4375 -55.875 15.4375 C-55.845271 17.10304932 -55.845271 17.10304932 -55.81494141 18.80224609 C-55.73898919 22.91364602 -55.6502564 27.02468718 -55.55761719 31.13574219 C-55.51928435 32.91659473 -55.48443911 34.69752584 -55.453125 36.47851562 C-55.40756729 39.03544234 -55.34955893 41.5918261 -55.2890625 44.1484375 C-55.27751129 44.94744476 -55.26596008 45.74645203 -55.25405884 46.56967163 C-55.30241056 50.97207212 -55.30241056 50.97207212 -52.875 54.4375 C-52.64453125 56.71484375 -52.64453125 56.71484375 -52.6875 59.375 C-52.69394531 60.25027344 -52.70039062 61.12554687 -52.70703125 62.02734375 C-52.875 64.4375 -52.875 64.4375 -53.875 67.4375 C-52.555 67.7675 -51.235 68.0975 -49.875 68.4375 C-49.215 72.3975 -48.555 76.3575 -47.875 80.4375 C-44.905 81.4275 -41.935 82.4175 -38.875 83.4375 C-39.21273437 82.34953125 -39.55046875 81.2615625 -39.8984375 80.140625 C-40.34935067 78.65636914 -40.79984887 77.17198716 -41.25 75.6875 C-41.47171875 74.97722656 -41.6934375 74.26695312 -41.921875 73.53515625 C-45.72580367 60.89268743 -46.13740906 48.76987989 -46 35.6875 C-45.98994397 34.00781787 -45.98082278 32.32812988 -45.97265625 30.6484375 C-45.95086468 26.57797718 -45.91648163 22.50780532 -45.875 18.4375 C-45.215 18.4375 -44.555 18.4375 -43.875 18.4375 C-42.6403526 20.9067948 -42.62007897 22.78755395 -42.4453125 25.546875 C-42.3738501 26.60100586 -42.3023877 27.65513672 -42.22875977 28.74121094 C-42.15326904 29.87848633 -42.07777832 31.01576172 -42 32.1875 C-40.84712318 48.21038358 -39.1561545 64.10937497 -35.42578125 79.7578125 C-34.875 82.4375 -34.875 82.4375 -34.875 86.4375 C-34.01745117 86.54634521 -33.15990234 86.65519043 -32.27636719 86.76733398 C-28.67287535 87.4773243 -25.78914657 88.63333049 -22.453125 90.16015625 C-21.26332031 90.69833984 -20.07351563 91.23652344 -18.84765625 91.79101562 C-17.60654012 92.36017426 -16.36565712 92.9298415 -15.125 93.5 C-12.6739515 94.62057866 -10.22036527 95.73514339 -7.765625 96.84765625 C-6.14188965 97.59221069 -6.14188965 97.59221069 -4.48535156 98.35180664 C-2.03841437 99.56550888 -2.03841437 99.56550888 0.125 99.4375 C0.30675781 98.86902344 0.48851562 98.30054688 0.67578125 97.71484375 C2.26584634 92.83048997 4.02959778 88.12720973 6.125 83.4375 C6.66125 84.159375 7.1975 84.88125 7.75 85.625 C12.02635592 90.6891057 16.59350082 94.98539986 23.359375 95.8515625 C24.51953125 95.92117188 25.6796875 95.99078125 26.875 96.0625 C28.04546875 96.13726562 29.2159375 96.21203125 30.421875 96.2890625 C31.75992188 96.36253906 31.75992188 96.36253906 33.125 96.4375 C33.54072266 95.32568359 33.54072266 95.32568359 33.96484375 94.19140625 C35.31702775 90.98167655 37.07760538 88.28893705 39.00390625 85.40234375 C40.15420491 83.38631509 40.59534335 81.68306909 41.125 79.4375 C41.46789062 78.8703125 41.81078125 78.303125 42.1640625 77.71875 C45.71456908 69.28990512 43.61062962 56.48332572 40.4140625 48.2734375 C38.13039484 43.24936866 35.71668929 38.30987586 33.125 33.4375 C32.444375 34.13875 31.76375 34.84 31.0625 35.5625 C30.08430831 36.52182849 29.10507731 37.480098 28.125 38.4375 C27.67511719 38.90671875 27.22523438 39.3759375 26.76171875 39.859375 C20.93837161 45.45701101 13.43284984 48.25853829 6.125 51.4375 C6.785 52.4275 7.445 53.4175 8.125 54.4375 C8.125 55.7575 8.125 57.0775 8.125 58.4375 C3.97219936 56.77031726 1.01222169 53.77534239 -2.1875 50.75 C-2.76564453 50.20617676 -3.34378906 49.66235352 -3.93945312 49.10205078 C-5.07960517 48.02698615 -6.21785376 46.94989852 -7.35400391 45.87060547 C-8.58708272 44.70878001 -9.84299479 43.57122095 -11.10546875 42.44140625 C-16.40991319 37.55850707 -20.23843647 31.8449446 -21.28515625 24.59765625 C-21.55446275 16.06181125 -18.96273802 10.31574404 -13.47265625 3.91796875 C-9.42498455 0.16719229 -5.33749656 0.04407107 0 0 Z " fill="#0B0604" transform="translate(927.875,197.5625)"/>
<path d="M0 0 C6.32049166 3.00942389 11.91332179 6.52000701 17.61914062 10.55273438 C21.05777416 12.9196782 23.7315517 14.58376508 28 15 C28 15.66 28 16.32 28 17 C32.95 17.99 32.95 17.99 38 19 C38 19.33 38 19.66 38 20 C36.02 20 34.04 20 32 20 C32 20.66 32 21.32 32 22 C32.556875 21.95359375 33.11375 21.9071875 33.6875 21.859375 C39.18119793 21.59953794 42.64764945 22.38858967 47.37109375 25.22265625 C47.90863281 25.47917969 48.44617188 25.73570312 49 26 C49.66 25.67 50.32 25.34 51 25 C49.02 24.01 47.04 23.02 45 22 C48.71766668 20.76077777 50.43889537 21.42981058 54.1875 22.4375 C55.27417969 22.72496094 56.36085938 23.01242187 57.48046875 23.30859375 C58.31191406 23.53675781 59.14335938 23.76492188 60 24 C59.35546875 23.75507813 58.7109375 23.51015625 58.046875 23.2578125 C56 22 56 22 55.390625 20.0546875 C55.26041667 18.03645833 55.13020833 16.01822917 55 14 C56.875 14.125 56.875 14.125 59 15 C59.66666667 17 60.33333333 19 61 21 C63.18096612 21.95417268 64.64182234 22 67 22 C67.495 22.99 67.495 22.99 68 24 C69.98 24 71.96 24 74 24 C74.99 25.98 74.99 25.98 76 28 C74.68 28 73.36 28 72 28 C72.63091553 28.20157715 73.26183105 28.4031543 73.91186523 28.61083984 C76.75631294 29.52444255 79.59688562 30.44955097 82.4375 31.375 C83.92733398 31.85066406 83.92733398 31.85066406 85.44726562 32.3359375 C86.39150391 32.6453125 87.33574219 32.9546875 88.30859375 33.2734375 C89.18314209 33.55622559 90.05769043 33.83901367 90.95874023 34.13037109 C93 35 93 35 94 37 C91.36 37.33 88.72 37.66 86 38 C86 38.66 86 39.32 86 40 C86.80824219 39.95359375 87.61648438 39.9071875 88.44921875 39.859375 C97.30493886 39.56026744 97.30493886 39.56026744 101.0625 41.9375 C101.701875 42.618125 102.34125 43.29875 103 44 C104.485 44.495 104.485 44.495 106 45 C105.01 43.68 104.02 42.36 103 41 C103.495 40.01 103.495 40.01 104 39 C133.13902594 50.68799766 133.13902594 50.68799766 146 57 C145.566875 57.56589844 145.13375 58.13179688 144.6875 58.71484375 C144.130625 59.44832031 143.57375 60.18179688 143 60.9375 C142.443125 61.66839844 141.88625 62.39929688 141.3125 63.15234375 C139.90348055 64.75814368 139.90348055 64.75814368 140 66 C143.3 62.37 146.6 58.74 150 55 C152.10841671 56.05420835 154.21457266 57.11385488 156.296875 58.21875 C161.50115194 60.93690738 166.24487949 62.82766064 172 64 C172.08919567 69.50464696 171.3900396 73.11154161 167.6875 77.3125 C166.4770389 78.56009181 165.24959174 79.79160359 164 81 C162.88625 82.1446875 162.88625 82.1446875 161.75 83.3125 C161.1725 83.869375 160.595 84.42625 160 85 C159.36384766 85.78890625 159.36384766 85.78890625 158.71484375 86.59375 C156.35885035 88.52577192 154.81383213 88.30443502 151.8125 88.1875 C150.91144531 88.16042969 150.01039063 88.13335937 149.08203125 88.10546875 C148.39496094 88.07066406 147.70789063 88.03585937 147 88 C147 87.34 147 86.68 147 86 C145.68 86 144.36 86 143 86 C142.67 85.34 142.34 84.68 142 84 C141.01 83.67 140.02 83.34 139 83 C137.97726922 79.98862604 137.14297577 77.09206132 136.72949219 73.93383789 C135.66696575 71.11714715 134.13325668 70.65803033 131.453125 69.37109375 C130.47794922 68.89889404 129.50277344 68.42669434 128.49804688 67.94018555 C127.42619141 67.44429932 126.35433594 66.94841309 125.25 66.4375 C124.13689453 65.91518799 123.02378906 65.39287598 121.87695312 64.85473633 C96.66599334 53.24138679 70.31611761 44.13093443 43 39 C42.67 39.99 42.34 40.98 42 42 C40.68 41.67 39.36 41.34 38 41 C38 40.34 38 39.68 38 39 C36.93072266 38.81824219 36.93072266 38.81824219 35.83984375 38.6328125 C30.44765159 37.68936031 25.22764328 36.62637791 20 35 C20 34.01 20 33.02 20 32 C10.76 32 1.52 32 -8 32 C-10.67562599 26.64874802 -9.62742063 17.65289809 -8.28125 11.9609375 C-6.39035758 6.91347467 -4.13687561 3.44739634 0 0 Z " fill="#0A0604" transform="translate(780,242)"/>
<path d="M0 0 C6.37033325 6.37033325 8.62537722 12.88112911 8.70532227 21.80102539 C8.41614214 34.06888081 2.0536555 55.4463445 -6.75 64.25 C-10.0813391 64.78731276 -11.44110225 64.45071236 -14.29296875 62.59765625 C-15.16566406 61.84355469 -16.03835937 61.08945312 -16.9375 60.3125 C-18.37802734 59.075 -18.37802734 59.075 -19.84765625 57.8125 C-21.28431641 56.5440625 -21.28431641 56.5440625 -22.75 55.25 C-23.61496094 54.5075 -24.47992188 53.765 -25.37109375 53 C-44.85718679 35.97626817 -44.85718679 35.97626817 -46.15625 24.734375 C-46.5421415 15.04849831 -45.19121793 9.20702868 -38.765625 2.03515625 C-27.03000487 -9.47157767 -13.23085725 -8.41963643 0 0 Z " fill="#6FABED" transform="translate(164.75,222.75)"/>
<path d="M0 0 C7.66750041 3.62324479 12.909817 8.85115838 16.5625 16.4375 C17.10197266 17.52224609 17.10197266 17.52224609 17.65234375 18.62890625 C18.85782576 22.34882712 18.81457328 25.88579881 18.75 29.75 C18.7490332 30.8318457 18.7490332 30.8318457 18.74804688 31.93554688 C18.71806658 35.64977225 18.45030912 38.95780415 17.6484375 42.5859375 C17.19835095 46.24467343 17.19835095 46.24467343 18.69946289 48.14038086 C20.384784 49.81393975 22.1297716 51.28642639 24 52.75 C26.25421818 54.5947833 28.41145206 56.4674086 30.5625 58.4375 C30.5625 59.4275 30.5625 60.4175 30.5625 61.4375 C15.70369003 63.12600113 -2.28388658 49.61974279 -15.02734375 43.0859375 C-26.4743236 37.23697928 -37.55887659 33.20885877 -50.09472656 30.36254883 C-55.8853983 29.00282601 -61.08761802 27.03431113 -66.4375 24.4375 C-66.4375 23.7775 -66.4375 23.1175 -66.4375 22.4375 C-62.67449626 21.18316542 -59.16539091 21.33054578 -55.25 21.375 C-54.50041016 21.37951172 -53.75082031 21.38402344 -52.97851562 21.38867188 C-51.13147617 21.40043646 -49.28447787 21.41837135 -47.4375 21.4375 C-47.1075 20.7775 -46.7775 20.1175 -46.4375 19.4375 C-43.1375 19.7675 -39.8375 20.0975 -36.4375 20.4375 C-32.66445996 14.89584744 -31.89419731 11.09295792 -32.4375 4.4375 C-22.12708271 -2.01371082 -11.74121895 -4.13016765 0 0 Z " fill="#EABA42" transform="translate(909.4375,113.5625)"/>
<path d="M0 0 C2.2803232 1.90357415 2.91290566 3.70076376 3.796875 6.5 C2.63671875 6.43039063 2.63671875 6.43039063 1.453125 6.359375 C-6.44891447 6.08554195 -11.84843614 6.68205186 -17.8828125 11.97265625 C-23.5787614 17.96615472 -26.36837554 25.16159909 -26.765625 33.375 C-26.47425583 41.45008836 -23.44359694 49.98296228 -17.87109375 55.98828125 C-13.80184669 59.67633421 -9.51493002 63.10190497 -5.203125 66.5 C-8.79716804 69.80955415 -12.86986665 70.68422741 -17.515625 71.6875 C-18.30437012 71.8618457 -19.09311523 72.03619141 -19.90576172 72.21582031 C-27.40626273 73.75353587 -34.56981854 73.90530831 -42.203125 73.5 C-44.17141562 58.50173655 -45.71312271 43.62248444 -46.203125 28.5 C-46.863125 28.5 -47.523125 28.5 -48.203125 28.5 C-48.13309982 33.33444554 -48.04462217 38.16811779 -47.94067383 43.00195312 C-47.90788365 44.63858283 -47.87971725 46.27531321 -47.85668945 47.91210938 C-47.64745083 62.40744881 -46.02174906 75.73250268 -41.203125 89.5 C-41.203125 90.82 -41.203125 92.14 -41.203125 93.5 C-44.173125 92.84 -47.143125 92.18 -50.203125 91.5 C-51.50238291 87.16914029 -52.546746 82.98525648 -53.203125 78.5 C-54.688125 78.005 -54.688125 78.005 -56.203125 77.5 C-56.17992187 76.58476562 -56.15671875 75.66953125 -56.1328125 74.7265625 C-56.11476563 73.53804688 -56.09671875 72.34953125 -56.078125 71.125 C-56.05492187 69.94164062 -56.03171875 68.75828125 -56.0078125 67.5390625 C-55.87446271 64.38846183 -55.87446271 64.38846183 -58.203125 62.5 C-58.44842081 59.92420615 -58.57654293 57.44770993 -58.6171875 54.8671875 C-58.63655365 54.11535187 -58.6559198 53.36351624 -58.6758728 52.58889771 C-58.73571647 50.18438101 -58.78207226 47.77981656 -58.828125 45.375 C-58.86630046 43.74607272 -58.90535193 42.11716572 -58.9453125 40.48828125 C-59.0430737 36.49229223 -59.12260121 32.49652266 -59.203125 28.5 C-59.533125 36.75 -59.863125 45 -60.203125 53.5 C-66.52413137 50.14440403 -72.49457654 46.8131255 -78.203125 42.5 C-75.9772932 38.23382239 -73.48016996 34.34197855 -70.578125 30.5 C-69.98773437 29.71625 -69.39734375 28.9325 -68.7890625 28.125 C-61.28120083 20.50372652 -53.97727207 17.38168837 -43.578125 15.4375 C-29.38371983 12.46041502 -16.81629042 8.77698241 -4.65625 0.625 C-2.203125 -0.5 -2.203125 -0.5 0 0 Z " fill="#EE6668" transform="translate(930.203125,187.5)"/>
<path d="M0 0 C1.875 0.125 1.875 0.125 4 1 C4.66666667 3 5.33333333 5 6 7 C8.18096612 7.95417268 9.64182234 8 12 8 C12.495 8.99 12.495 8.99 13 10 C14.98 10 16.96 10 19 10 C19.66 11.32 20.32 12.64 21 14 C19.68 14 18.36 14 17 14 C17.94637329 14.30236572 17.94637329 14.30236572 18.91186523 14.61083984 C21.75631294 15.52444255 24.59688562 16.44955097 27.4375 17.375 C28.43072266 17.69210937 29.42394531 18.00921875 30.44726562 18.3359375 C31.39150391 18.6453125 32.33574219 18.9546875 33.30859375 19.2734375 C34.18314209 19.55622559 35.05769043 19.83901367 35.95874023 20.13037109 C38 21 38 21 39 23 C35.04 23.495 35.04 23.495 31 24 C31 24.66 31 25.32 31 26 C31.80824219 25.95359375 32.61648438 25.9071875 33.44921875 25.859375 C42.30493886 25.56026744 42.30493886 25.56026744 46.0625 27.9375 C46.701875 28.618125 47.34125 29.29875 48 30 C49.485 30.495 49.485 30.495 51 31 C50.01 29.68 49.02 28.36 48 27 C48.33 26.34 48.66 25.68 49 25 C78.13902594 36.68799766 78.13902594 36.68799766 91 43 C90.59007812 43.51949219 90.18015625 44.03898437 89.7578125 44.57421875 C86.92363424 48.2423777 84.40171967 51.51449706 83 56 C78.33819961 54.56780326 74.05305969 52.64255403 69.6875 50.5 C29.97528777 31.0009182 29.97528777 31.0009182 -13 24 C-13.33 24.66 -13.66 25.32 -14 26 C-14.66 26 -15.32 26 -16 26 C-15.67 24.68 -15.34 23.36 -15 22 C-16.11375 21.87625 -17.2275 21.7525 -18.375 21.625 C-23.30460991 21.01542458 -28.14244255 20.02526315 -33 19 C-32.71515154 17.26969709 -32.42180062 15.54079286 -32.125 13.8125 C-31.96257813 12.84957031 -31.80015625 11.88664062 -31.6328125 10.89453125 C-31.01960483 8.08967396 -30.14333657 5.62775253 -29 3 C-27.56163249 3.11458693 -26.12429034 3.24209116 -24.6875 3.375 C-23.48673828 3.47941406 -23.48673828 3.47941406 -22.26171875 3.5859375 C-20 4 -20 4 -17 6 C-18.98 6 -20.96 6 -23 6 C-23 6.66 -23 7.32 -23 8 C-22.443125 7.95359375 -21.88625 7.9071875 -21.3125 7.859375 C-15.81880207 7.59953794 -12.35235055 8.38858967 -7.62890625 11.22265625 C-7.09136719 11.47917969 -6.55382812 11.73570312 -6 12 C-5.34 11.67 -4.68 11.34 -4 11 C-5.98 10.01 -7.96 9.02 -10 8 C-6.28233332 6.76077777 -4.56110463 7.42981058 -0.8125 8.4375 C0.81751953 8.86869141 0.81751953 8.86869141 2.48046875 9.30859375 C3.31191406 9.53675781 4.14335938 9.76492188 5 10 C4.35546875 9.75507813 3.7109375 9.51015625 3.046875 9.2578125 C1 8 1 8 0.390625 6.0546875 C0.26041667 4.03645833 0.13020833 2.01822917 0 0 Z " fill="#EB9054" transform="translate(835,256)"/>
<path d="M0 0 C0.69480469 -0.03287109 1.38960937 -0.06574219 2.10546875 -0.09960938 C6.63274748 -0.14650209 9.37645176 0.69623172 12.66894531 3.84399414 C15.46623917 6.90535179 18.05653297 10.0715404 20.5625 13.375 C21.11615234 14.06529297 21.66980469 14.75558594 22.24023438 15.46679688 C26.12908749 20.57606217 26.12908749 20.57606217 26.109375 24.73046875 C23.55647977 31.75093064 18.44141752 35.1447961 12.125 38.8125 C11.53178955 39.15845215 10.9385791 39.5044043 10.32739258 39.86083984 C6.61056125 41.91437758 3.3421215 42.98750228 -0.875 43.4375 C-2.85982177 40.50378436 -4.83686403 37.56490779 -6.8125 34.625 C-7.37646484 33.79162109 -7.94042969 32.95824219 -8.52148438 32.09960938 C-9.05966797 31.29716797 -9.59785156 30.49472656 -10.15234375 29.66796875 C-10.64984131 28.92957764 -11.14733887 28.19118652 -11.65991211 27.43041992 C-15.0923855 21.80066701 -14.08645234 15.64619325 -12.875 9.4375 C-15.12730226 13.94210452 -14.42591438 19.5627425 -13.875 24.4375 C-12.47440393 28.22804937 -10.26005683 31.19435077 -7.875 34.4375 C-6.89521792 35.84281287 -5.91895258 37.25058108 -4.9453125 38.66015625 C0.56642452 46.64681982 0.56642452 46.64681982 6.4921875 54.32421875 C8.125 56.4375 8.125 56.4375 8.125 58.4375 C3.97219936 56.77031726 1.01222169 53.77534239 -2.1875 50.75 C-2.76564453 50.20617676 -3.34378906 49.66235352 -3.93945312 49.10205078 C-5.07960517 48.02698615 -6.21785376 46.94989852 -7.35400391 45.87060547 C-8.58708272 44.70878001 -9.84299479 43.57122095 -11.10546875 42.44140625 C-16.40991319 37.55850707 -20.23843647 31.8449446 -21.28515625 24.59765625 C-21.55446275 16.06181125 -18.96273802 10.31574404 -13.47265625 3.91796875 C-9.42498455 0.16719229 -5.33749656 0.04407107 0 0 Z " fill="#EE6668" transform="translate(927.875,197.5625)"/>
<path d="M0 0 C0.33 0 0.66 0 1 0 C1.029729 1.66554932 1.029729 1.66554932 1.06005859 3.36474609 C1.13601081 7.47614602 1.2247436 11.58718718 1.31738281 15.69824219 C1.35571565 17.47909473 1.39056089 19.26002584 1.421875 21.04101562 C1.46743271 23.59794234 1.52544107 26.1543261 1.5859375 28.7109375 C1.59748871 29.50994476 1.60903992 30.30895203 1.62094116 31.13217163 C1.57258944 35.53457212 1.57258944 35.53457212 4 39 C4.23046875 41.27734375 4.23046875 41.27734375 4.1875 43.9375 C4.18105469 44.81277344 4.17460938 45.68804687 4.16796875 46.58984375 C4 49 4 49 3 52 C4.32 52.33 5.64 52.66 7 53 C7.66 56.96 8.32 60.92 9 65 C11.97 65.99 14.94 66.98 18 68 C17.66226563 66.91203125 17.32453125 65.8240625 16.9765625 64.703125 C16.52564933 63.21886914 16.07515113 61.73448716 15.625 60.25 C15.40328125 59.53972656 15.1815625 58.82945312 14.953125 58.09765625 C11.14919633 45.45518743 10.73759094 33.33237989 10.875 20.25 C10.88505603 18.57031787 10.89417722 16.89062988 10.90234375 15.2109375 C10.92413532 11.14047718 10.95851837 7.07030532 11 3 C11.66 3 12.32 3 13 3 C14.2346474 5.4692948 14.25492103 7.35005395 14.4296875 10.109375 C14.5011499 11.16350586 14.5726123 12.21763672 14.64624023 13.30371094 C14.72173096 14.44098633 14.79722168 15.57826172 14.875 16.75 C16.02787682 32.77288358 17.7188455 48.67187497 21.44921875 64.3203125 C22 67 22 67 22 71 C22.99 71.495 22.99 71.495 24 72 C20.0507432 71.44894091 16.65079826 70.61064629 13 69 C13.66 70.65 14.32 72.3 15 74 C12.54213734 73.56109595 11.16962228 73.14539053 9.25 71.5 C6.35268008 69.56845338 4.20397625 69.5002161 0.75 69.3125 C-0.32765625 69.24675781 -1.4053125 69.18101562 -2.515625 69.11328125 C-3.33546875 69.07589844 -4.1553125 69.03851563 -5 69 C-5 68.34 -5 67.68 -5 67 C-1.535 66.01 -1.535 66.01 2 65 C-5.59 62.36 -13.18 59.72 -21 57 C-15.85326053 55.71331513 -11.45320051 56.40822618 -6.21484375 56.94140625 C-2.84506723 57.30821242 -2.84506723 57.30821242 0 55 C-0.598125 55.33 -1.19625 55.66 -1.8125 56 C-4 57 -4 57 -7 57 C-6.855625 56.154375 -6.71125 55.30875 -6.5625 54.4375 C-5.9941203 50.96406851 -5.48797607 47.48554338 -5 44 C-7.14530955 46.97578174 -7.14530955 46.97578174 -8.375 50.625 C-8.91125 51.73875 -9.4475 52.8525 -10 54 C-11.98 54.495 -11.98 54.495 -14 55 C-14 50.38 -14 45.76 -14 41 C-14.66 41 -15.32 41 -16 41 C-16.10957031 41.62648437 -16.21914063 42.25296875 -16.33203125 42.8984375 C-16.49058594 43.71570313 -16.64914062 44.53296875 -16.8125 45.375 C-16.96332031 46.18710937 -17.11414063 46.99921875 -17.26953125 47.8359375 C-18 50 -18 50 -21 52 C-21.33 48.04 -21.66 44.08 -22 40 C-23.32 42.64 -24.64 45.28 -26 48 C-27.32 48 -28.64 48 -30 48 C-29.91266424 46.39482903 -29.80447776 44.79078338 -29.6875 43.1875 C-29.62949219 42.29417969 -29.57148437 41.40085938 -29.51171875 40.48046875 C-28.9290429 37.65604766 -28.23914391 36.75261387 -26 35 C-23.70370006 33.85185003 -21.92301914 33.69230191 -19.375 33.4375 C-18.55773437 33.35371094 -17.74046875 33.26992187 -16.8984375 33.18359375 C-16.27195312 33.12300781 -15.64546875 33.06242187 -15 33 C-15 32.67 -15 32.34 -15 32 C-19.77003402 31.61839728 -23.09465992 31.5390996 -27.4375 33.75 C-29.78000464 35.80683334 -30.96521967 37.10261508 -32 40 C-32.99 40 -33.98 40 -35 40 C-33.56007449 35.89771221 -31.55506592 32.69601883 -29 29.1875 C-28.29875 28.21167969 -27.5975 27.23585937 -26.875 26.23046875 C-26.25625 25.49441406 -25.6375 24.75835937 -25 24 C-24.34 24 -23.68 24 -23 24 C-22.896875 23.38125 -22.79375 22.7625 -22.6875 22.125 C-22 20 -22 20 -19 18 C-14.92686488 18.27935219 -11.60760773 20.92617596 -8.25 23.0625 C-7.64800781 23.43955078 -7.04601562 23.81660156 -6.42578125 24.20507812 C-4.94750857 25.13193163 -3.47333911 26.06532389 -2 27 C-1.96241577 25.9330188 -1.96241577 25.9330188 -1.92407227 24.84448242 C-1.80811561 21.62530483 -1.68538755 18.40642015 -1.5625 15.1875 C-1.52318359 14.06794922 -1.48386719 12.94839844 -1.44335938 11.79492188 C-1.38051758 10.18520508 -1.38051758 10.18520508 -1.31640625 8.54296875 C-1.27974854 7.55321045 -1.24309082 6.56345215 -1.20532227 5.54370117 C-1 3 -1 3 0 0 Z " fill="#24130D" transform="translate(871,213)"/>
<path d="M0 0 C2.34379878 2.34379878 2.28791064 2.95060458 2.4921875 6.140625 C2.59080078 7.37619141 2.59080078 7.37619141 2.69140625 8.63671875 C2.81267229 10.36282476 2.92738298 12.08940529 3.03515625 13.81640625 C3.49983971 19.45398106 4.58040578 22.50705226 8 27 C8.1875 29.5625 8.1875 29.5625 7 32 C0.53932466 38.30684973 -9.48828972 40.90453158 -18.3828125 41.05859375 C-25.52916074 40.47083926 -25.52916074 40.47083926 -27 39 C-27.08172652 37.27163534 -27.13951818 35.54213041 -27.1875 33.8125 C-27.64734287 27.06813784 -29.87274937 22.09874033 -32.8203125 16.12890625 C-34.1202794 12.68098079 -34.49005403 11.35818147 -33 8 C-23.33729344 -0.67826153 -12.42148972 -1.53382768 0 0 Z " fill="#BFBFBD" transform="translate(138,139)"/>
<path d="M0 0 C4.82450047 1.39396427 9.56373772 2.77876932 14.1875 4.75 C17.33785336 6.01140909 18.04386541 5.9916807 21.625 5.3125 C25 5 25 5 26.76953125 6.15234375 C28.39027277 7.70476361 29.77616421 9.11717571 31 11 C31 11.99 31 12.98 31 14 C31.66 13.34 32.32 12.68 33 12 C36.29714793 12.32971479 37.6226839 12.6226839 40 15 C40.56321839 21.1954023 40.56321839 21.1954023 38.6875 23.875 C37 25 37 25 34 26 C34.99 26.66 35.98 27.32 37 28 C37.5 30.4375 37.5 30.4375 37 33 C33.02390526 36.44594878 27.11295303 37.99474144 22 39 C20.515 38.505 20.515 38.505 19 38 C19.6496875 37.57847656 20.299375 37.15695313 20.96875 36.72265625 C22.22171875 35.90087891 22.22171875 35.90087891 23.5 35.0625 C24.3353125 34.51722656 25.170625 33.97195312 26.03125 33.41015625 C26.6809375 32.94480469 27.330625 32.47945312 28 32 C28 31.67 28 31.34 28 31 C27.46890625 31.40992188 26.9378125 31.81984375 26.390625 32.2421875 C25.68421875 32.78101563 24.9778125 33.31984375 24.25 33.875 C23.55390625 34.40867188 22.8578125 34.94234375 22.140625 35.4921875 C16.89380134 39.18794285 12.37077512 39.99994367 6 39 C2.34928504 36.46685084 1.24400371 34.99478434 0.1875 30.6875 C0.125625 29.800625 0.06375 28.91375 0 28 C2.97 27.34 5.94 26.68 9 26 C7.7763932 25.9254644 7.7763932 25.9254644 6 27 C4.00039988 27.039992 1.99952758 27.04346799 0 27 C-0.391875 26.071875 -0.78375 25.14375 -1.1875 24.1875 C-3.12822616 20.77449882 -4.53018941 19.68801596 -8 18 C-7.58848872 15.22229888 -6.98282731 13.97996519 -5.125 11.8125 C-2.35546575 8.14693996 -1.25832774 4.37554872 0 0 Z " fill="#F5A89B" transform="translate(867,153)"/>
<path d="M0 0 C1.23829052 3.71487155 1.5503822 7.13978512 1 11 C-2.04710799 16.00596313 -5.07925744 17.48295687 -10.61328125 18.97265625 C-12.17840007 19.34144467 -13.74495021 19.70418522 -15.3125 20.0625 C-16.18680664 20.26584961 -17.06111328 20.46919922 -17.96191406 20.67871094 C-20.03939513 21.16109392 -22.11740836 21.64118785 -24.19580078 22.11962891 C-27.85501382 22.96644717 -31.51135347 23.82465366 -35.16716003 24.6860199 C-38.65009373 25.50572402 -42.13419137 26.32040817 -45.61849976 27.13424683 C-47.36221936 27.54226536 -49.10557256 27.95185319 -50.84854126 28.36306763 C-53.34058028 28.95024742 -55.83413621 29.5305402 -58.328125 30.109375 C-59.06820297 30.28522629 -59.80828094 30.46107758 -60.57078552 30.64225769 C-74.25613105 33.7926677 -74.25613105 33.7926677 -79.4375 31.4375 C-82.35004051 28.66703464 -83.18664744 26.90409227 -84 23 C-84 21.68 -84 20.36 -84 19 C-75.1102616 16.52139693 -66.1766532 14.27644577 -57.1875 12.1875 C-56.21474121 11.95651611 -55.24198242 11.72553223 -54.23974609 11.48754883 C-53.32918457 11.2789624 -52.41862305 11.07037598 -51.48046875 10.85546875 C-50.66473389 10.66621826 -49.84899902 10.47696777 -49.00854492 10.28198242 C-47 10 -47 10 -45 11 C-45.66 11.99 -46.32 12.98 -47 14 C-47.23314275 17.10857 -46.99528744 19.01413769 -46 22 C-44.54207116 22.05399736 -43.08357288 22.09279177 -41.625 22.125 C-40.81289062 22.14820313 -40.00078125 22.17140625 -39.1640625 22.1953125 C-36.78657757 22.21370051 -36.78657757 22.21370051 -35 20 C-34.75746187 17.78927023 -34.75746187 17.78927023 -34.875 15.375 C-34.89304688 14.55773437 -34.91109375 13.74046875 -34.9296875 12.8984375 C-34.95289063 12.27195312 -34.97609375 11.64546875 -35 11 C-35.99 10.67 -36.98 10.34 -38 10 C-38 9.34 -38 8.68 -38 8 C-33.23247273 6.85494075 -28.46358897 5.71578024 -23.69335938 4.58203125 C-22.07122923 4.19562455 -20.44947958 3.80761687 -18.828125 3.41796875 C-16.49577769 2.85774807 -14.1621167 2.3033243 -11.828125 1.75 C-11.10506165 1.57500977 -10.38199829 1.40001953 -9.63702393 1.21972656 C-6.29294998 0.43253625 -3.46086636 0 0 0 Z " fill="#616873" transform="translate(201,287)"/>
<path d="M0 0 C2.71764883 1.81176589 3.68102663 3.41469993 5.0625 6.375 C5.75 10.1875 5.75 10.1875 6.0625 13.375 C1.58080853 14.94183252 -2.93073562 16.16743632 -7.54760742 17.25439453 C-8.28493607 17.43025085 -9.02226471 17.60610718 -9.78193665 17.78729248 C-12.20162985 18.3635778 -14.62224845 18.93585817 -17.04296875 19.5078125 C-18.73117895 19.90837634 -20.41935492 20.30908449 -22.10749817 20.70993042 C-25.63658526 21.54721085 -29.16614718 22.38245264 -32.69604492 23.21630859 C-37.22319342 24.28595949 -41.74900689 25.36114394 -46.27447033 26.43789864 C-49.75596758 27.26553918 -53.23820333 28.09003673 -56.72066689 28.91360092 C-58.39029475 29.30889595 -60.05967791 29.70522598 -61.72881126 30.10260391 C-64.05698296 30.65643218 -66.3861261 31.20597195 -68.71557617 31.75439453 C-69.4060202 31.91956573 -70.09646423 32.08473694 -70.80783081 32.25491333 C-73.59904171 32.90801768 -76.05821152 33.375 -78.9375 33.375 C-79.87369813 30.21993858 -80.0432123 27.40913498 -80 24.125 C-79.99097656 23.23296875 -79.98195313 22.3409375 -79.97265625 21.421875 C-79.96105469 20.74640625 -79.94945313 20.0709375 -79.9375 19.375 C-78.03871094 19.20677734 -78.03871094 19.20677734 -76.1015625 19.03515625 C-59.31388216 17.31060933 -13.33305907 -4.3009868 0 0 Z " fill="#606772" transform="translate(173.9375,185.625)"/>
<path d="M0 0 C3.33614412 2.73420986 4.81775456 6.41531218 6.5625 10.25 C6.86607422 10.89324219 7.16964844 11.53648437 7.48242188 12.19921875 C10.59236814 18.93404792 12.26782619 24.93912507 12.125 32.4375 C12.10695313 33.67371094 12.08890625 34.90992188 12.0703125 36.18359375 C12.04710937 37.11300781 12.02390625 38.04242188 12 39 C6.00136384 41.61758669 0.77977184 42.30135794 -5.6875 42.3125 C-6.41187256 42.31765625 -7.13624512 42.3228125 -7.88256836 42.328125 C-12.28436624 42.27159463 -15.90972895 41.61678431 -20 40 C-19.91878906 39.32195312 -19.83757813 38.64390625 -19.75390625 37.9453125 C-19.18954885 29.62967895 -21.68113616 25.25509242 -27 19 C-24.23313511 17.15542341 -21.46388035 15.81913974 -18.45117188 14.43554688 C-10.68257798 10.81020306 -5.04184794 7.16473128 0 0 Z " fill="#EF6769" transform="translate(960,230)"/>
<path d="M0 0 C4.76610141 0.95322028 5.83552894 1.28470409 9.1875 4.3125 C10.19876953 5.20388672 10.19876953 5.20388672 11.23046875 6.11328125 C14.37328539 9.46423144 15 11.35069338 15 16 C15.66 16 16.32 16 17 16 C17 15.34 17 14.68 17 14 C20 15 20 15 21.1875 16.9375 C22.67801606 22.555599 22.7472566 27.87621809 20.8125 33.375 C18.42182199 36.83736126 15.7594239 39.12028805 12 41 C7.72875838 41.61687036 3.68477552 41.96974329 -0.14453125 39.765625 C-3.64833056 36.78555148 -6.83862414 33.97480288 -7.23046875 29.1796875 C-7.14638085 22.71256334 -6.86929739 16.41106829 -6 10 C-4.02 10.66 -2.04 11.32 0 12 C0 8.04 0 4.08 0 0 Z " fill="#110F0C" transform="translate(140,224)"/>
<path d="M0 0 C2.34532032 2.34532032 2.55952843 3.59223461 3.296875 6.78515625 C3.53027588 7.77805664 3.76367676 8.77095703 4.00415039 9.79394531 C4.25028076 10.87256836 4.49641113 11.95119141 4.75 13.0625 C5.28495581 15.3503073 5.8201178 17.63806639 6.35546875 19.92578125 C6.62794434 21.10092285 6.90041992 22.27606445 7.18115234 23.48681641 C8.20374501 27.87414749 9.25501855 32.25421664 10.3112793 36.63354492 C11.05858384 39.73375372 11.79891708 42.83557539 12.5390625 45.9375 C13.50824418 49.98594752 14.50517133 54.02612959 15.5234375 58.0625 C15.7618335 59.02188477 16.00022949 59.98126953 16.24584961 60.96972656 C16.69387752 62.77069438 17.14992004 64.56969503 17.61547852 66.36621094 C18.65057125 70.56392307 19.38864473 73.7564397 18 78 C15.36 78.33 12.72 78.66 10 79 C9.72849121 77.85337891 9.45698242 76.70675781 9.17724609 75.52539062 C8.14214392 71.15592532 7.1053505 66.78686293 6.06784058 62.41796875 C5.60689 60.47662838 5.14621584 58.53522236 4.68582153 56.59375 C1.8075077 44.46133807 -1.07805704 32.33385591 -4.28564453 20.28320312 C-5.77269732 14.53872816 -6.57112228 8.91772567 -7 3 C-7.99 2.67 -8.98 2.34 -10 2 C-8.37828761 1.61102839 -6.75245075 1.23921702 -5.125 0.875 C-4.22007812 0.66617188 -3.31515625 0.45734375 -2.3828125 0.2421875 C-1.20332031 0.12230469 -1.20332031 0.12230469 0 0 Z " fill="#CACED0" transform="translate(180,204)"/>
<path d="M0 0 C5.047747 3.48153017 8.10395701 7.98251033 11.5625 12.9375 C12.68767344 14.53074558 13.81394736 16.12321465 14.94140625 17.71484375 C15.46621582 18.45976074 15.99102539 19.20467773 16.53173828 19.97216797 C17.76308218 21.67279026 19.07420881 23.31525079 20.40234375 24.94140625 C22 27 22 27 22 29 C18.18447383 27.50104329 16.46254954 25.2013144 14 22 C10.90083704 20.45041852 7.64928151 20.73318927 4.25 20.6875 C3.19425781 20.64399414 3.19425781 20.64399414 2.1171875 20.59960938 C-3.05155064 20.5371618 -5.9001434 21.6105444 -10 25 C-11.65237053 26.70152727 -11.65237053 26.70152727 -12.8125 28.5 C-13.21082031 29.0671875 -13.60914063 29.634375 -14.01953125 30.21875 C-17.14699306 35.90051329 -16.93991435 43.31671064 -15.375 49.44921875 C-10.44480467 61.10065694 1.89343716 70.8879743 12 78 C12.33 77.34 12.66 76.68 13 76 C16.97674419 79.85623679 16.97674419 79.85623679 17.04296875 83.11328125 C16.7798228 85.08863015 16.39718314 87.04718291 16 89 C15.9071875 88.071875 15.9071875 88.071875 15.8125 87.125 C15.4103125 86.073125 15.4103125 86.073125 15 85 C14.3090625 84.73316406 13.618125 84.46632813 12.90625 84.19140625 C9.05063089 82.61080971 6.00899974 80.30018532 2.6875 77.8125 C2.02177979 77.31564697 1.35605957 76.81879395 0.67016602 76.30688477 C-1.22718497 74.88056826 -3.1150933 73.44270295 -5 72 C-6.26070312 71.04480469 -6.26070312 71.04480469 -7.546875 70.0703125 C-14.00668234 64.83736779 -19.35160417 57.24197913 -21 49 C-21.95527095 38.76068956 -20.26486606 30.7052229 -13.75 22.625 C-9.4404593 18.11459088 -5.37176326 15.26760026 0.953125 14.765625 C3.64955505 14.75179715 6.31002025 14.82198663 9 15 C8.01 13.35 7.02 11.7 6 10 C2.47790506 11.30744433 -0.76209142 12.92829091 -4.0625 14.71630859 C-14.25739042 20.15546762 -24.84524685 23.16283286 -36 26 C-36.75796875 26.20447754 -37.5159375 26.40895508 -38.296875 26.61962891 C-42.25335687 27.66921568 -45.03077509 28.24038279 -49 27 C-49 26.67 -49 26.34 -49 26 C-45.43774498 25.18642345 -41.8751537 24.37432881 -38.3125 23.5625 C-37.30509766 23.33240234 -36.29769531 23.10230469 -35.25976562 22.86523438 C-34.28330078 22.64287109 -33.30683594 22.42050781 -32.30078125 22.19140625 C-31.40528564 21.98717041 -30.50979004 21.78293457 -29.5871582 21.57250977 C-27.06405873 21.01417549 -24.53571775 20.49755218 -22 20 C-22.66 17.69 -23.32 15.38 -24 13 C-31.92 14.485 -31.92 14.485 -40 16 C-38.87050322 11.48201289 -38.42104495 11.20922941 -34.6875 8.875 C-33.90761719 8.37742188 -33.12773438 7.87984375 -32.32421875 7.3671875 C-30.25120977 6.14777045 -28.16688646 5.04129555 -26 4 C-28.82425603 7.53032004 -31.29893051 10.36654671 -35 13 C-32.87434778 12.35631658 -30.74949654 11.70998756 -28.625 11.0625 C-27.44164062 10.70285156 -26.25828125 10.34320313 -25.0390625 9.97265625 C-22.12073182 9.12423726 -22.12073182 9.12423726 -20 8 C-20 8.99 -20 9.98 -20 11 C-20.99 11.495 -20.99 11.495 -22 12 C-21.67 14.31 -21.34 16.62 -21 19 C-8.55167437 14.42805618 -8.55167437 14.42805618 3 8 C2.690625 7.4225 2.38125 6.845 2.0625 6.25 C1.07416636 4.15705816 0.4831387 2.25464725 0 0 Z " fill="#0F0706" transform="translate(924,178)"/>
<path d="M0 0 C0.66 0.33 1.32 0.66 2 1 C2 1.99 2 2.98 2 4 C6.84104201 4.95446412 11.46364397 5.18313047 16.375 5.1875 C17.09171875 5.19974609 17.8084375 5.21199219 18.546875 5.22460938 C23.67460427 5.23849312 28.06844728 4.40821991 33 3 C33.99828099 6.12214056 34.12380858 6.72880026 32.6875 9.875 C32.130625 10.90625 31.57375 11.9375 31 13 C30.67 14.03125 30.34 15.0625 30 16.125 C29.00720935 18.97927312 27.82845208 20.6382494 26 23 C25.30686092 24.65583225 24.63525576 26.32110979 24 28 C23 29 23 29 20.33984375 29.0546875 C10.90161991 28.55622792 6.11932544 26.50580889 -0.9375 20.5 C-3.24059602 17.70836846 -3.67904428 16.55558757 -4 13 C-3.22265625 9.66796875 -3.22265625 9.66796875 -2.0625 6.1875 C-1.68222656 5.02605469 -1.30195312 3.86460937 -0.91015625 2.66796875 C-0.60980469 1.78753906 -0.30945313 0.90710938 0 0 Z " fill="#3E2616" transform="translate(938,266)"/>
<path d="M0 0 C6.66984476 0.28999325 12.07507419 3.09646493 18 6 C17.505 5.38125 17.01 4.7625 16.5 4.125 C15 2 15 2 15 0 C18.89917968 1.61537444 21.71293772 4.27924873 24.75 7.125 C25.25660156 7.59292969 25.76320313 8.06085938 26.28515625 8.54296875 C27.52719141 9.69126541 28.76411494 10.84508672 30 12 C29.1565796 15.86567683 27.60119875 19.20919093 25.9375 22.78125 C23.63883969 28.22141274 24 31.70909039 24 38 C18.06 38 12.12 38 6 38 C5.67 37.34 5.34 36.68 5 36 C6.98 35.34 8.96 34.68 11 34 C10.44570313 33.73445313 9.89140625 33.46890625 9.3203125 33.1953125 C8.59585938 32.84210938 7.87140625 32.48890625 7.125 32.125 C6.40570312 31.77695312 5.68640625 31.42890625 4.9453125 31.0703125 C3 30 3 30 1 28 C1 26.68 1 25.36 1 24 C4.3 23.01 7.6 22.02 11 21 C10.61191996 15.52645442 8.7956457 13.17823575 5 9.3125 C0.0899928 4.2699784 0.0899928 4.2699784 -1 1 C-0.67 0.67 -0.34 0.34 0 0 Z " fill="#89A7B1" transform="translate(746,231)"/>
<path d="M0 0 C2.11390334 1.04725487 4.21284979 2.1129407 6.296875 3.21875 C11.50115194 5.93690738 16.24487949 7.82766064 22 9 C22.08710996 14.37592873 21.42447729 18.0890915 17.875 22.25 C14.52972756 25.69163831 11.08732423 28.48472355 7 31 C6.01 31 5.02 31 4 31 C4.53707764 27.13304097 5.58554629 25.02939501 8 22 C6.90751403 23.50852857 5.80061501 25.00662831 4.6875 26.5 C4.07261719 27.3353125 3.45773437 28.170625 2.82421875 29.03125 C2.22222656 29.6809375 1.62023437 30.330625 1 31 C0.01 31 -0.98 31 -2 31 C-1.29445932 27.33118845 0.27735506 24.29549466 2 21 C1.59007812 21.5775 1.18015625 22.155 0.7578125 22.75 C-0.05042969 23.86375 -0.05042969 23.86375 -0.875 25 C-1.40867187 25.7425 -1.94234375 26.485 -2.4921875 27.25 C-3.23855469 28.11625 -3.23855469 28.11625 -4 29 C-4.66 29 -5.32 29 -6 29 C-5.55966813 23.80408388 -5.11696661 20.33664919 -2 16 C-3.59692307 17.59692307 -4.47919876 19.5903362 -5.5625 21.5625 C-6.01753906 22.38878906 -6.47257813 23.21507812 -6.94140625 24.06640625 C-7.29074219 24.70449219 -7.64007812 25.34257812 -8 26 C-8.33 26 -8.66 26 -9 26 C-9.125 18.375 -9.125 18.375 -8 15 C-8.99 16.32 -9.98 17.64 -11 19 C-11.5963615 15.67741452 -11.38367641 13.61197973 -9.58203125 10.73828125 C-6.61083271 6.90549848 -3.46763396 3.39091639 0 0 Z " fill="#E6B741" transform="translate(930,297)"/>
<path d="M0 0 C0.66 0 1.32 0 2 0 C5.72373614 6.12614656 6.5086637 10.99577453 6.7265625 18.14453125 C6.79208632 21.20039516 6.79208632 21.20039516 9 24 C13.28062554 25.09028957 17.415591 25.08040062 21.8125 25 C23.87466301 24.96271796 25.93804011 24.95280206 28 25 C29 26 29 26 29.0625 29.0625 C29.041875 30.031875 29.02125 31.00125 29 32 C20.0146265 34.24113144 11.27394893 36.41117785 2 37 C0.16166528 27.51652723 0.4462707 17.51659195 2 8 C1.34 7.67 0.68 7.34 0 7 C-1.18135474 13.48349807 -1.11322974 19.86214507 -1.0625 26.4375 C-1.05798828 27.55060547 -1.05347656 28.66371094 -1.04882812 29.81054688 C-1.03711193 32.54042101 -1.02070699 35.27018174 -1 38 C-3.31 38 -5.62 38 -8 38 C-10.95012694 27.91246918 -9.11133314 16.32222894 -4.53515625 7.0234375 C-3.12121663 4.56892129 -1.76207048 2.21853999 0 0 Z " fill="#DF5345" transform="translate(101,157)"/>
<path d="M0 0 C0.99 0.33 1.98 0.66 3 1 C2.46890625 1.64066406 1.9378125 2.28132812 1.390625 2.94140625 C-2.54287168 7.7577863 -6.30457309 12.37476124 -9 18 C-8.505 18.99 -8.505 18.99 -8 20 C-8.928125 20.12375 -8.928125 20.12375 -9.875 20.25 C-12.18437567 20.81258459 -12.18437567 20.81258459 -13.25 23.0625 C-13.4975 23.701875 -13.745 24.34125 -14 25 C-14.66 25 -15.32 25 -16 25 C-16.25652344 25.55429688 -16.51304687 26.10859375 -16.77734375 26.6796875 C-18.17550971 29.33307593 -19.81852482 31.68561927 -21.5625 34.125 C-23.96731666 37.45091748 -23.96731666 37.45091748 -26 41 C-25.01 41 -24.02 41 -23 41 C-22.9071875 40.13375 -22.9071875 40.13375 -22.8125 39.25 C-21.48032055 35.56088769 -18.42181986 33.71090993 -15 32 C-12.9765625 31.83203125 -12.9765625 31.83203125 -10.625 31.8125 C-9.46871094 31.79123047 -9.46871094 31.79123047 -8.2890625 31.76953125 C-5.78165112 32.02198393 -4.16738098 32.74806533 -2 34 C-2.89203125 34.13277344 -3.7840625 34.26554687 -4.703125 34.40234375 C-5.87359375 34.57894531 -7.0440625 34.75554687 -8.25 34.9375 C-9.41015625 35.11152344 -10.5703125 35.28554687 -11.765625 35.46484375 C-15.14788904 35.97965624 -15.14788904 35.97965624 -19 37 C-19.33 40.96 -19.66 44.92 -20 49 C-19.01 48.67 -18.02 48.34 -17 48 C-15.96514123 45.68191636 -14.9644586 43.34824702 -14 41 C-13.34 40.67 -12.68 40.34 -12 40 C-11.505 45.94 -11.505 45.94 -11 52 C-8.81024227 48.71536341 -8.00193437 45.79303725 -7 42 C-6.34 42 -5.68 42 -5 42 C-5 46.62 -5 51.24 -5 56 C-3.02 55.505 -3.02 55.505 -1 55 C0.14293555 52.68684675 0.14293555 52.68684675 0.75 49.9375 C0.99234375 49.01839844 1.2346875 48.09929687 1.484375 47.15234375 C1.65453125 46.44207031 1.8246875 45.73179687 2 45 C2.99 45 3.98 45 5 45 C4.45144652 49.571279 3.58255197 53.67435795 2 58 C2.7425 57.484375 3.485 56.96875 4.25 56.4375 C7 55 7 55 9.3125 55.3125 C10.1478125 55.6528125 10.1478125 55.6528125 11 56 C7.52063343 58.99945394 4.84518397 59.18730916 0.4375 58.875 C-3.72422911 58.49403728 -5.75865692 57.57786987 -9 55 C-11.66761764 54.74875174 -11.66761764 54.74875174 -14 55 C-14.33 54.01 -14.66 53.02 -15 52 C-15.763125 52.226875 -16.52625 52.45375 -17.3125 52.6875 C-20 53 -20 53 -21.75 51.875 C-23.26012724 49.60980914 -23.63803085 47.67857172 -24 45 C-27.37810112 45.60323234 -29.32255812 46.90192055 -32 49 C-26.71169451 51.15294651 -21.44876003 53.27933894 -16 55 C-20.09086452 56.67641098 -23.71511018 55.2409319 -27.75 54.0625 C-28.44738281 53.86720703 -29.14476562 53.67191406 -29.86328125 53.47070312 C-31.57798973 52.9891754 -33.28934877 52.49574843 -35 52 C-33.35 52.99 -31.7 53.98 -30 55 C-30.33 55.66 -30.66 56.32 -31 57 C-36.59197324 55.22073579 -36.59197324 55.22073579 -38.90625 53.96875 C-41.25691241 52.88113008 -43.17798869 52.60194217 -45.75 52.375 C-46.54921875 52.30023438 -47.3484375 52.22546875 -48.171875 52.1484375 C-48.77515625 52.09945312 -49.3784375 52.05046875 -50 52 C-50 51.34 -50 50.68 -50 50 C-48.515 49.505 -48.515 49.505 -47 49 C-49.31 48.34 -51.62 47.68 -54 47 C-54 46.34 -54 45.68 -54 45 C-53.17757812 45.22558594 -52.35515625 45.45117188 -51.5078125 45.68359375 C-44.65521824 47.31225168 -44.65521824 47.31225168 -38.05078125 45.57421875 C-35.43581514 43.67597412 -35.43581514 43.67597412 -33.12109375 41.6015625 C-31 40 -31 40 -27 40 C-26.79117188 39.17113281 -26.58234375 38.34226563 -26.3671875 37.48828125 C-24.6305166 33.05728949 -22.08225781 29.87689237 -19.125 26.1875 C-14.31005656 20.04832815 -9.66347683 13.82855452 -5.1875 7.4375 C-4.40560303 6.32121216 -4.40560303 6.32121216 -3.60791016 5.18237305 C-2.40251115 3.45684172 -1.20080734 1.72872984 0 0 Z " fill="#0C0604" transform="translate(862,212)"/>
<path d="M0 0 C12.12373332 3.51922593 18.90522797 12.8671713 24.9375 23.375 C26 26 26 26 26 30 C24.02 30.66 22.04 31.32 20 32 C19.49210937 30.9378125 18.98421875 29.875625 18.4609375 28.78125 C14.84641735 21.32674256 11.33638287 14.40365944 6 8 C5.01 8.33 4.02 8.66 3 9 C3.51949219 9.60585937 4.03898438 10.21171875 4.57421875 10.8359375 C16.50039055 25.1649794 16.50039055 25.1649794 16 34 C-2.80259111 42.19493462 -2.80259111 42.19493462 -11 40 C-11 38.02 -11 36.04 -11 34 C-9.2365625 33.4121875 -9.2365625 33.4121875 -7.4375 32.8125 C-3.25700598 31.22807789 0.94400066 29.34831232 4 26 C4.96100099 23.60652975 4.96100099 23.60652975 5 21 C4.04047448 18.9002459 4.04047448 18.9002459 2.5625 16.9375 C-0.80976658 11.42263311 -0.47873159 6.28734151 0 0 Z " fill="#DF5345" transform="translate(144,146)"/>
<path d="M0 0 C7.40002906 3.8406995 14.2757627 8.06986506 21 13 C20.69128878 14.79232337 20.37790936 16.58384321 20.0625 18.375 C19.80146484 19.87160156 19.80146484 19.87160156 19.53515625 21.3984375 C19 24 19 24 18 26 C10.41 26 2.82 26 -5 26 C-7.37497969 20.06255077 -7.45197427 16.16883984 -6 10 C-4.29246925 6.44303844 -2.28079526 3.21543308 0 0 Z " fill="#EBBA42" transform="translate(783,246)"/>
<path d="M0 0 C6.37033325 6.37033325 8.62537722 12.88112911 8.70532227 21.80102539 C8.41614214 34.06888081 2.0536555 55.4463445 -6.75 64.25 C-10.0813391 64.78731276 -11.44110225 64.45071236 -14.29296875 62.59765625 C-15.16566406 61.84355469 -16.03835937 61.08945312 -16.9375 60.3125 C-18.37802734 59.075 -18.37802734 59.075 -19.84765625 57.8125 C-21.28431641 56.5440625 -21.28431641 56.5440625 -22.75 55.25 C-23.61496094 54.5075 -24.47992188 53.765 -25.37109375 53 C-44.85718679 35.97626817 -44.85718679 35.97626817 -46.15625 24.734375 C-46.5421415 15.04849831 -45.19121793 9.20702868 -38.765625 2.03515625 C-27.03000487 -9.47157767 -13.23085725 -8.41963643 0 0 Z M-38.75 5.25 C-43.41444672 11.67247527 -44.64146092 18.4628267 -43.75 26.25 C-41.6370855 33.58809496 -35.90533146 38.89446149 -30.75 44.25 C-29.67878906 45.39855469 -29.67878906 45.39855469 -28.5859375 46.5703125 C-22.82655687 52.58101156 -16.50192991 57.41740042 -9.75 62.25 C-6.64254075 60.1783605 -6.20824313 59.6079761 -4.84765625 56.35546875 C-4.51644775 55.57131592 -4.18523926 54.78716309 -3.84399414 53.97924805 C-3.50360107 53.14047119 -3.16320801 52.30169434 -2.8125 51.4375 C-2.45986084 50.57745361 -2.10722168 49.71740723 -1.74389648 48.83129883 C5.97308655 30.71310529 5.97308655 30.71310529 5.43359375 11.578125 C2.13007167 5.08010796 -2.92806987 0.2508189 -9.625 -2.625 C-20.32648374 -6.0890641 -31.26762967 -3.08749837 -38.75 5.25 Z " fill="#0E1114" transform="translate(164.75,222.75)"/>
<path d="M0 0 C1.53249727 3.54389995 1.03948745 6.70894352 0 10.3125 C-1.77531103 13.40497728 -3.48736187 15.79986187 -6 18.3125 C-6.99 18.3125 -7.98 18.3125 -9 18.3125 C-8.855625 17.466875 -8.71125 16.62125 -8.5625 15.75 C-7.9941203 12.27656851 -7.48797607 8.79804338 -7 5.3125 C-9.14530955 8.28828174 -9.14530955 8.28828174 -10.375 11.9375 C-10.91125 13.05125 -11.4475 14.165 -12 15.3125 C-13.32 15.6425 -14.64 15.9725 -16 16.3125 C-16 11.6925 -16 7.0725 -16 2.3125 C-16.66 2.3125 -17.32 2.3125 -18 2.3125 C-18.10957031 2.93898437 -18.21914063 3.56546875 -18.33203125 4.2109375 C-18.49058594 5.02820313 -18.64914062 5.84546875 -18.8125 6.6875 C-18.96332031 7.49960937 -19.11414063 8.31171875 -19.26953125 9.1484375 C-20 11.3125 -20 11.3125 -23 13.3125 C-23.33 9.3525 -23.66 5.3925 -24 1.3125 C-25.32 3.9525 -26.64 6.5925 -28 9.3125 C-29.32 9.3125 -30.64 9.3125 -32 9.3125 C-31.91266424 7.70732903 -31.80447776 6.10328338 -31.6875 4.5 C-31.62949219 3.60667969 -31.57148437 2.71335938 -31.51171875 1.79296875 C-30.9290429 -1.03145234 -30.23914391 -1.93488613 -28 -3.6875 C-19.59503594 -7.88998203 -7.03520727 -5.93595614 0 0 Z " fill="#E4B540" transform="translate(873,251.6875)"/>
<path d="M0 0 C0.53625 0.721875 1.0725 1.44375 1.625 2.1875 C6.86471533 8.39242605 11.8887194 11.89391628 20 13 C19.01 13.33 18.02 13.66 17 14 C17 14.66 17 15.32 17 16 C19.64 16 22.28 16 25 16 C24 18 23 20 22 22 C18.37 22 14.74 22 11 22 C10.67 22.66 10.34 23.32 10 24 C5.33333333 21.66666667 0.66666667 19.33333333 -4 17 C-5.48185125 18.62255228 -6.96040256 20.24811888 -8.4375 21.875 C-9.67306641 23.23238281 -9.67306641 23.23238281 -10.93359375 24.6171875 C-13.00907942 26.81137927 -13.00907942 26.81137927 -14 29 C-14.66 28.67 -15.32 28.34 -16 28 C-15.566875 27.44570313 -15.13375 26.89140625 -14.6875 26.3203125 C-14.130625 25.59585937 -13.57375 24.87140625 -13 24.125 C-12.1646875 23.04605469 -12.1646875 23.04605469 -11.3125 21.9453125 C-9.81356623 20.1147915 -9.81356623 20.1147915 -10 18 C-13.49795811 16.39135441 -16.99872435 14.78891043 -20.5 13.1875 C-21.48226562 12.73568359 -22.46453125 12.28386719 -23.4765625 11.81835938 C-28.9232368 9.33104478 -34.36279605 7.01999808 -40 5 C-39.34 4.34 -38.68 3.68 -38 3 C-37.35039307 3.28721924 -36.70078613 3.57443848 -36.03149414 3.87036133 C-33.04365144 5.18858191 -30.05311093 6.50057245 -27.0625 7.8125 C-26.04091797 8.26431641 -25.01933594 8.71613281 -23.96679688 9.18164062 C-18.04899464 11.77186077 -12.16405346 14.06529709 -6 16 C-5.80035645 15.38060547 -5.60071289 14.76121094 -5.39501953 14.12304688 C-3.82988539 9.28830538 -2.0728412 4.63921602 0 0 Z " fill="#1F110B" transform="translate(934,281)"/>
<path d="M0 0 C8.73170166 -0.55439376 14.88396335 1.34308227 21.8125 6.75 C26.24391499 10.92317402 28.70363696 14.73115991 29.26171875 20.88671875 C28.9301655 35.63211344 22.89589223 52.58169271 15 65 C14.01 65.495 14.01 65.495 13 66 C12.01 65.01 11.02 64.02 10 63 C10.39832031 62.26136719 10.79664063 61.52273438 11.20703125 60.76171875 C14.68972214 54.09291648 17.80521719 47.49088548 19 40 C18.67 39.34 18.34 38.68 18 38 C18.66 37.01 19.32 36.02 20 35 C20.495 35.495 20.495 35.495 21 36 C22.6357156 28.65268732 23.49286079 21.00258316 19.9375 14.125 C14.81484121 6.22637528 9.07705507 3.08206092 0 1 C0 0.67 0 0.34 0 0 Z " fill="#659AD7" transform="translate(142,219)"/>
<path d="M0 0 C4.62902557 1.34637326 8.29310689 3.22210044 12.3125 5.875 C13.88451172 6.89207031 13.88451172 6.89207031 15.48828125 7.9296875 C18 10 18 10 19.0078125 11.9296875 C18.99678006 14.8532838 17.94260085 16.69176427 16.5625 19.25 C16.08941406 20.14203125 15.61632812 21.0340625 15.12890625 21.953125 C14.75636719 22.62859375 14.38382813 23.3040625 14 24 C10.75408363 23.35017013 8.3002408 22.16973614 5.453125 20.49609375 C4.60878906 20.00302734 3.76445313 19.50996094 2.89453125 19.00195312 C1.58548828 18.22754883 1.58548828 18.22754883 0.25 17.4375 C-0.63816406 16.91736328 -1.52632812 16.39722656 -2.44140625 15.86132812 C-4.6302426 14.57862295 -6.81627981 13.29138944 -9 12 C-7.02295264 9.48827945 -5.10756579 7.10449249 -2.8125 4.875 C-0.77113594 3.0333941 -0.77113594 3.0333941 0 0 Z " fill="#EB8F54" transform="translate(952,314)"/>
<path d="M0 0 C-1 3 -1 3 -2.54370117 3.99560547 C-3.53333862 4.42703857 -3.53333862 4.42703857 -4.54296875 4.8671875 C-5.27926514 5.19283691 -6.01556152 5.51848633 -6.77416992 5.85400391 C-7.57056885 6.19093262 -8.36696777 6.52786133 -9.1875 6.875 C-10.41980347 7.40552979 -10.41980347 7.40552979 -11.67700195 7.94677734 C-36.68775003 18.59513435 -66.5219007 27.96662341 -94 26 C-94 25.01 -94 24.02 -94 23 C-90.26008131 22.15127306 -86.7024199 21.84889722 -82.875 21.6875 C-74.57160354 21.12587589 -66.64416471 19.44710673 -58.54589844 17.58251953 C-55.97436045 16.99413349 -53.39805165 16.43161902 -50.8203125 15.87109375 C-35.85266788 12.5449505 -20.33042238 8.61263806 -6.97265625 0.84765625 C-4.54605615 -0.19506102 -2.61368724 -0.15000292 0 0 Z " fill="#C02F2A" transform="translate(180,176)"/>
<path d="M0 0 C6.08954561 3.11558148 8.7654469 7.58307538 11 14 C11.1328125 16.81640625 11.1328125 16.81640625 11 19 C12.65 18.01 14.3 17.02 16 16 C17.1671568 19.50147041 17.13357453 22.32670036 17 26 C16.67 26.66 16.34 27.32 16 28 C15.34 28 14.68 28 14 28 C13.67 26.02 13.34 24.04 13 22 C12.01 22 11.02 22 10 22 C9.3503125 20.824375 9.3503125 20.824375 8.6875 19.625 C6.5455243 16.2930378 4.76119793 15.91940394 1 15 C1 16.65 1 18.3 1 20 C0.01 20 -0.98 20 -2 20 C-2 24.29 -2 28.58 -2 33 C-5 32 -5 32 -6.6875 29.5 C-8.99110858 23.35704379 -8.30455793 17.35971989 -7 11 C-4.525 11.99 -4.525 11.99 -2 13 C-1.34 8.71 -0.68 4.42 0 0 Z " fill="#E8C26E" transform="translate(143,227)"/>
<path d="M0 0 C2.75 2.5625 2.75 2.5625 5 5 C-7.13352893 10.09608215 -18.98247219 11.49225945 -32 11 C-32 8.03 -32 5.06 -32 2 C-29.84791016 1.92652344 -29.84791016 1.92652344 -27.65234375 1.8515625 C-25.74737811 1.77648996 -23.84243109 1.7009441 -21.9375 1.625 C-20.99455078 1.5940625 -20.05160156 1.563125 -19.08007812 1.53125 C-13.65328303 1.30434568 -4.65710775 -2.32855387 0 0 Z " fill="#ECB943" transform="translate(920,250)"/>
<path d="M0 0 C6.32049166 3.00942389 11.91332179 6.52000701 17.61914062 10.55273438 C21.05777416 12.9196782 23.7315517 14.58376508 28 15 C28 15.66 28 16.32 28 17 C27.34 17 26.68 17 26 17 C25.01 21.29 24.02 25.58 23 30 C22.34 30 21.68 30 21 30 C21.66 25.71 22.32 21.42 23 17 C16.73 13.04 10.46 9.08 4 5 C-1.52900639 11.91125799 -3.41942483 16.69575351 -2.6875 25.5625 C-2.460625 27.356875 -2.23375 29.15125 -2 31 C5.26 31 12.52 31 20 31 C20 31.33 20 31.66 20 32 C10.76 32 1.52 32 -8 32 C-10.67562599 26.64874802 -9.62742063 17.65289809 -8.28125 11.9609375 C-6.39035758 6.91347467 -4.13687561 3.44739634 0 0 Z " fill="#221A0A" transform="translate(780,242)"/>
<path d="M0 0 C0.66 0 1.32 0 2 0 C3.2346474 2.4692948 3.25492103 4.35005395 3.4296875 7.109375 C3.5011499 8.16350586 3.5726123 9.21763672 3.64624023 10.30371094 C3.75947632 12.00962402 3.75947632 12.00962402 3.875 13.75 C5.02787682 29.77288358 6.7188455 45.67187497 10.44921875 61.3203125 C11 64 11 64 11 68 C11.66 68.33 12.32 68.66 13 69 C10.0625 68.625 10.0625 68.625 7 68 C6.67 67.34 6.34 66.68 6 66 C6.66 66 7.32 66 8 66 C7.59007812 64.83984375 7.18015625 63.6796875 6.7578125 62.484375 C6.21304303 60.90642206 5.66880082 59.32828702 5.125 57.75 C4.85558594 56.99203125 4.58617187 56.2340625 4.30859375 55.453125 C-0.02335713 42.77424438 -0.26403139 30.48683766 -0.125 17.25 C-0.11494397 15.57031787 -0.10582278 13.89062988 -0.09765625 12.2109375 C-0.07586468 8.14047718 -0.04148163 4.07030532 0 0 Z " fill="#0E0705" transform="translate(882,216)"/>
<path d="M0 0 C1.47968324 0.14049518 2.95874516 0.28754826 4.4375 0.4375 C5.67306641 0.55931641 5.67306641 0.55931641 6.93359375 0.68359375 C9 1 9 1 10 2 C10.49360839 4.49777741 10.9462504 6.99104166 11.375 9.5 C12.20768621 14.20308678 13.08881764 18.73429059 14.6875 23.25 C16 27 16 27 16 31 C11.545 30.01 11.545 30.01 7 29 C5.70074209 24.66914029 4.656379 20.48525648 4 16 C3.01 15.67 2.02 15.34 1 15 C1.01160156 14.08476562 1.02320313 13.16953125 1.03515625 12.2265625 C1.04417969 11.03804688 1.05320312 9.84953125 1.0625 8.625 C1.07410156 7.44164062 1.08570313 6.25828125 1.09765625 5.0390625 C1.21466593 2.08078479 1.21466593 2.08078479 0 0 Z " fill="#E86465" transform="translate(873,250)"/>
<path d="M0 0 C0.33 2.31 0.66 4.62 1 7 C-19.21875 13.4375 -19.21875 13.4375 -26 13 C-27.38125018 10.23749964 -27.19079306 8.05268901 -27 5 C-24.16016944 2.16016944 -21.76749042 2.43727436 -17.8125 2 C-13.77181123 1.54879647 -10.10282928 1.03043662 -6.19921875 -0.125 C-3 -1 -3 -1 0 0 Z " fill="#E16162" transform="translate(901,191)"/>
<path d="M0 0 C3.33523252 1.38009621 5.18607951 2.84950652 7 6 C5.6176737 10.1469789 3.49580672 10.68409645 -0.24609375 12.66015625 C-13.27696793 19 -13.27696793 19 -18 19 C-18.66 16.36 -19.32 13.72 -20 11 C-18.89140625 10.45730469 -17.7828125 9.91460937 -16.640625 9.35546875 C-15.17697731 8.63302726 -13.7134415 7.91035908 -12.25 7.1875 C-11.52039063 6.83107422 -10.79078125 6.47464844 -10.0390625 6.10742188 C-6.44089782 4.32469483 -3.10367291 2.58911661 0 0 Z " fill="#EA6466" transform="translate(921,178)"/>
<path d="M0 0 C0.9384375 -0.01417969 1.876875 -0.02835937 2.84375 -0.04296875 C5.55994337 0.19270097 7.17915046 0.80265346 9.5 2.1875 C7.85064453 2.20876953 7.85064453 2.20876953 6.16796875 2.23046875 C-3.07251415 2.48258653 -10.33503563 3.40843878 -18.5 8.1875 C-18.45359375 8.75597656 -18.4071875 9.32445313 -18.359375 9.91015625 C-18.07866869 15.91526614 -18.79422947 19.38001391 -22.5 24.1875 C-25.81844824 25.67206895 -27.30245821 25.24340805 -30.8125 24.25 C-32.1428125 23.7240625 -32.1428125 23.7240625 -33.5 23.1875 C-33.83 24.1775 -34.16 25.1675 -34.5 26.1875 C-35.82 25.8575 -37.14 25.5275 -38.5 25.1875 C-37.819375 24.5275 -37.13875 23.8675 -36.4375 23.1875 C-34.22835186 20.99076281 -32.20243454 18.68790448 -30.1875 16.3125 C-21.92972648 6.85975709 -12.96652565 0.08905581 0 0 Z " fill="#090603" transform="translate(896.5,109.8125)"/>
<path d="M0 0 C2.0625 1.6875 2.0625 1.6875 4 4 C3.4847115 9.86856344 0.36148029 13.29659218 -4 17 C-16.19365988 24.29379655 -16.19365988 24.29379655 -23 25 C-24.8125 23.6875 -24.8125 23.6875 -26 22 C-26 21.34 -26 20.68 -26 20 C-25.23816406 19.72027344 -24.47632813 19.44054687 -23.69140625 19.15234375 C-13.08820103 15.03549378 -5.31748518 10.28759696 0 0 Z " fill="#E5B540" transform="translate(955,222)"/>
<path d="M0 0 C2.76734813 1.3283271 5.31294308 2.81254083 7.875 4.5 C13.74535848 8.1825127 19.1970823 9.29624989 26 10 C24.5 13 24.5 13 23 16 C14.35914606 16.55747445 7.167822 14.86007182 0.375 9.25 C-0.40875 8.5075 -1.1925 7.765 -2 7 C-1.34 4.69 -0.68 2.38 0 0 Z " fill="#E66365" transform="translate(933,287)"/>
<path d="M0 0 C0.90492188 0.30744141 0.90492188 0.30744141 1.828125 0.62109375 C3.02695312 1.02521484 3.02695312 1.02521484 4.25 1.4375 C5.03890625 1.70433594 5.8278125 1.97117187 6.640625 2.24609375 C10.30112236 3.41575599 13.47029852 4.12521215 17.328125 4.09765625 C18.12734375 4.09443359 18.9265625 4.09121094 19.75 4.08789062 C20.575 4.07951172 21.4 4.07113281 22.25 4.0625 C23.09046875 4.05798828 23.9309375 4.05347656 24.796875 4.04882812 C26.86461401 4.03707961 28.93231624 4.01914522 31 4 C30.45276317 7.37462715 29.9451 9.08235 28 12 C18.61078438 13.6728779 9.73455575 10.97070165 1.8125 6 C0 4 0 4 0 0 Z " fill="#ED6567" transform="translate(937,276)"/>
<path d="M0 0 C0.33 0 0.66 0 1 0 C1.33 3.96 1.66 7.92 2 12 C4.18975773 8.71536341 4.99806563 5.79303725 6 2 C6.66 2 7.32 2 8 2 C8 6.62 8 11.24 8 16 C9.32 15.67 10.64 15.34 12 15 C13.14293555 12.68684675 13.14293555 12.68684675 13.75 9.9375 C13.99234375 9.01839844 14.2346875 8.09929687 14.484375 7.15234375 C14.65453125 6.44207031 14.8246875 5.73179687 15 5 C15.99 5 16.98 5 18 5 C17.45144652 9.571279 16.58255197 13.67435795 15 18 C15.7425 17.484375 16.485 16.96875 17.25 16.4375 C20 15 20 15 22.3125 15.3125 C22.869375 15.539375 23.42625 15.76625 24 16 C20.52063343 18.99945394 17.84518397 19.18730916 13.4375 18.875 C9.27577089 18.49403728 7.24134308 17.57786987 4 15 C1.33238236 14.74875174 1.33238236 14.74875174 -1 15 C-1.33 14.01 -1.66 13.02 -2 12 C-3.65 12.33 -5.3 12.66 -7 13 C-7.66 12.01 -8.32 11.02 -9 10 C-8.236875 9.814375 -7.47375 9.62875 -6.6875 9.4375 C-2.92634332 7.42571852 -2.42077804 4.90713962 -1 1 C-0.67 0.67 -0.34 0.34 0 0 Z " fill="#140D06" transform="translate(849,252)"/>
<path d="M0 0 C4.76610141 0.95322028 5.83552894 1.28470409 9.1875 4.3125 C10.19876953 5.20388672 10.19876953 5.20388672 11.23046875 6.11328125 C14.37328539 9.46423144 15 11.35069338 15 16 C15.66 16 16.32 16 17 16 C17 15.34 17 14.68 17 14 C17.99 14.33 18.98 14.66 20 15 C21.1875 18.5625 21.1875 18.5625 22 22 C21.01 22 20.02 22 19 22 C18.67 21.34 18.34 20.68 18 20 C16.02 20.99 16.02 20.99 14 22 C13.82984375 21.34773438 13.6596875 20.69546875 13.484375 20.0234375 C11.6265693 13.32347865 10.00624826 8.00416551 4 4 C3.95101562 4.61488281 3.90203125 5.22976562 3.8515625 5.86328125 C3.77679688 6.67152344 3.70203125 7.47976562 3.625 8.3125 C3.55539063 9.11300781 3.48578125 9.91351563 3.4140625 10.73828125 C3 13 3 13 1 16 C-1.475 15.01 -1.475 15.01 -4 14 C-4 19.28 -4 24.56 -4 30 C-4.99 30 -5.98 30 -7 30 C-7.11381955 23.23405981 -6.88021369 16.71162938 -6 10 C-4.02 10.66 -2.04 11.32 0 12 C0 8.04 0 4.08 0 0 Z " fill="#0E0F0F" transform="translate(140,224)"/>
<path d="M0 0 C1.11256539 3.33769617 0.80685967 3.77256134 0 7 C-0.94927718 16.87248271 4.65854284 23.16940466 10.390625 30.6796875 C12 33 12 33 12 35 C22.17448262 31.20642143 32.63943414 26.99014547 38 17 C38.66 17.33 39.32 17.66 40 18 C34.54407913 27.16594706 26.79809552 31.9604343 17 36 C16.01 36 15.02 36 14 36 C14.99 37.32 15.98 38.64 17 40 C27.07768756 37.55562472 35.90090233 33.65678379 42 25 C42.33 24.34 42.66 23.68 43 23 C43.99 23.33 44.98 23.66 46 24 C39.10506175 33.34647185 31.40142296 37.39451446 21 42 C20.01 42.495 20.01 42.495 19 43 C19.66 44.65 20.32 46.3 21 48 C14.73005725 42.14421861 10.19459819 35.06041169 5.38134766 28.00439453 C4.24550439 26.35623737 3.071175 24.73466908 1.88671875 23.12109375 C-2.52124513 16.73533224 -3.11672068 10.65597928 -2 3 C-1.34 2.01 -0.68 1.02 0 0 Z " fill="#301912" transform="translate(915,206)"/>
<path d="M0 0 C1.19625 0.33 2.3925 0.66 3.625 1 C13.38480736 3.15176855 23.37595622 2.4836242 33 0 C32.75 2.875 32.75 2.875 32 6 C28.45338566 8.69363114 24.20319342 8.38249765 19.9375 8.375 C18.8093689 8.37693359 18.8093689 8.37693359 17.65844727 8.37890625 C11.2261141 8.25786587 5.81071251 6.81123024 0 4 C0 2.68 0 1.36 0 0 Z " fill="#E7B741" transform="translate(938,271)"/>
<path d="M0 0 C2.25 3 2.25 3 2.75 6.625 C2.25 10 2.25 10 1.1875 11.9375 C-1.9152833 13.63902633 -4.28769185 13.42519574 -7.75 13 C-10.25 11.4375 -10.25 11.4375 -11.75 9 C-11.75 5.16331059 -11.65374521 2.93490884 -8.9375 0.125 C-8.215625 -0.24625 -7.49375 -0.6175 -6.75 -1 C-6.110625 -1.33 -5.47125 -1.66 -4.8125 -2 C-2.75 -2 -2.75 -2 0 0 Z " fill="#070809" transform="translate(164.75,297)"/>
<path d="M0 0 C0.66 0.33 1.32 0.66 2 1 C-1.96 4.465 -1.96 4.465 -6 8 C-2.62534314 8 -0.46034008 7.18506921 2.6875 6 C3.68136719 5.62875 4.67523437 5.2575 5.69921875 4.875 C6.45847656 4.58625 7.21773437 4.2975 8 4 C8 4.99 8 5.98 8 7 C7.01 7.495 7.01 7.495 6 8 C6.33 10.31 6.66 12.62 7 15 C15.93184484 11.72612937 15.93184484 11.72612937 24.5625 7.75 C27.23051823 6.39173617 29.15484595 5.622572 32 5 C23.03752055 15.56525863 4.7137872 18.76629874 -8 22 C-8.75796875 22.20447754 -9.5159375 22.40895508 -10.296875 22.61962891 C-14.25335687 23.66921568 -17.03077509 24.24038279 -21 23 C-21 22.67 -21 22.34 -21 22 C-17.43774498 21.18642345 -13.8751537 20.37432881 -10.3125 19.5625 C-9.30509766 19.33240234 -8.29769531 19.10230469 -7.25976562 18.86523438 C-6.28330078 18.64287109 -5.30683594 18.42050781 -4.30078125 18.19140625 C-3.40528564 17.98717041 -2.50979004 17.78293457 -1.5871582 17.57250977 C0.93594127 17.01417549 3.46428225 16.49755218 6 16 C5.34 13.69 4.68 11.38 4 9 C-3.92 10.485 -3.92 10.485 -12 12 C-10.85868342 7.43473367 -10.36363579 7.1982542 -6.5625 4.875 C-4.08829834 3.34202754 -2.06278588 2.06278588 0 0 Z " fill="#371A1A" transform="translate(896,182)"/>
<path d="M0 0 C0.33 0.66 0.66 1.32 1 2 C0.01 3.485 0.01 3.485 -1 5 C-1.07905064 7.33199388 -1.08798769 9.66832622 -1 12 C0.65 8.7 2.3 5.4 4 2 C4.66 2.33 5.32 2.66 6 3 C5.72285156 3.51949219 5.44570313 4.03898437 5.16015625 4.57421875 C3.19266733 8.36216005 1.53662611 11.70699113 1 16 C4.63559661 12.56638098 7.36113346 9.2026393 10 5 C10.33 5.66 10.66 6.32 11 7 C9.78515625 9.6015625 9.78515625 9.6015625 8.0625 12.625 C7.49660156 13.62789063 6.93070313 14.63078125 6.34765625 15.6640625 C5.90292969 16.43492187 5.45820312 17.20578125 5 18 C5.99 18 6.98 18 8 18 C8.3403125 17.195625 8.3403125 17.195625 8.6875 16.375 C10.43382056 13.21499137 12.6402849 10.7323017 15 8 C15.66 8.33 16.32 8.66 17 9 C15.73046875 10.46484375 14.4609375 11.9296875 13.19140625 13.39453125 C11.79128769 15.10712971 11.79128769 15.10712971 11 18 C12.65 17.34 14.3 16.68 16 16 C16 16.99 16 17.98 16 19 C11.95858806 19.63394697 8.0934693 20.12404452 4 20 C4 19.34 4 18.68 4 18 C2.68 18 1.36 18 0 18 C-0.33 17.34 -0.66 16.68 -1 16 C-1.99 15.67 -2.98 15.34 -4 15 C-5.39044898 11.12137916 -6 8.13537997 -6 4 C-5.01 4 -4.02 4 -3 4 C-1.29467677 2.05990478 -1.29467677 2.05990478 0 0 Z " fill="#251D0A" transform="translate(923,310)"/>
<path d="M0 0 C3.34306064 1.27130475 6.38563028 2.75083344 9.5 4.5 C15.42676543 7.53500526 21.4371146 8.31079417 28 9 C27.34 10.65 26.68 12.3 26 14 C15.50137247 13.82395594 9.81499203 12.21311802 2 5.375 C0 3 0 3 0 0 Z " fill="#E3B440" transform="translate(935,281)"/>
<path d="M0 0 C3.02642912 1.6215682 6.01709813 3.29974593 9 5 C10.00546875 5.56589844 11.0109375 6.13179687 12.046875 6.71484375 C13.04203125 7.30394531 14.0371875 7.89304688 15.0625 8.5 C16.00222656 9.0465625 16.94195313 9.593125 17.91015625 10.15625 C20 12 20 12 20.30859375 14.71875 C20.20675781 15.4715625 20.10492187 16.224375 20 17 C14.6462535 15.44347945 9.99849053 13.0182491 5.125 10.375 C4.34125 9.95476562 3.5575 9.53453125 2.75 9.1015625 C0.83107943 8.0718978 -1.08477603 7.03652433 -3 6 C-2.42655063 3.13275314 -2.1385485 2.1385485 0 0 Z " fill="#E2B43F" transform="translate(851,231)"/>
<path d="M0 0 C3.2542015 2.83430453 4.5206753 4.68607774 5 9 C5.99 9 6.98 9 8 9 C8.22223194 11.74086056 8.34781139 13.43963721 6.875 15.8125 C4.09996189 17.57002414 2.21070255 17.46822746 -1 17 C-3.62344341 14.72634905 -3.96104296 13.32464203 -4.375 9.875 C-4.25125 8.92625 -4.1275 7.9775 -4 7 C-3.01 6.34 -2.02 5.68 -1 5 C-0.27034634 2.43717258 -0.27034634 2.43717258 0 0 Z " fill="#EB7B68" transform="translate(147,245)"/>
<path d="M0 0 C3.77071576 0.46238483 6.54881275 1.66274175 9.8125 3.5625 C10.60269531 4.01753906 11.39289062 4.47257813 12.20703125 4.94140625 C12.79871094 5.29074219 13.39039063 5.64007813 14 6 C11.05733813 6.87214639 8.6758009 7.01053444 5.625 6.8125 C1.01408607 6.75932636 -1.47491967 7.90480752 -5 11 C-6.38868516 13.10039331 -6.38868516 13.10039331 -7 15 C-7.99 15 -8.98 15 -10 15 C-8.65794923 11.19639883 -6.95995677 8.38858921 -4.4375 5.25 C-3.81746094 4.47140625 -3.19742188 3.6928125 -2.55859375 2.890625 C-1 1 -1 1 0 0 Z " fill="#E36163" transform="translate(846,238)"/>
<path d="M0 0 C0.45732667 5.71658336 -0.47726246 8.48649253 -4 13 C-6.64 12.67 -9.28 12.34 -12 12 C-10.56869725 8.83831632 -8.82485862 6.37725517 -6.5625 3.75 C-5.96566406 3.04359375 -5.36882813 2.3371875 -4.75390625 1.609375 C-3 0 -3 0 0 0 Z " fill="#E56264" transform="translate(877,120)"/>
<path d="M0 0 C7.92 0 15.84 0 24 0 C24 0.99 24 1.98 24 3 C24.94359375 3.07347656 24.94359375 3.07347656 25.90625 3.1484375 C31.46913314 3.63435199 36.61993052 4.50553626 42 6 C42 7.65 42 9.3 42 11 C41.34 11 40.68 11 40 11 C40 10.34 40 9.68 40 9 C38.93072266 8.81824219 38.93072266 8.81824219 37.83984375 8.6328125 C32.44765159 7.68936031 27.22764328 6.62637791 22 5 C22 3.68 22 2.36 22 1 C14.74 1 7.48 1 0 1 C0 0.67 0 0.34 0 0 Z " fill="#261D0B" transform="translate(778,272)"/>
<path d="M0 0 C1.47968324 0.14049518 2.95874516 0.28754826 4.4375 0.4375 C5.67306641 0.55931641 5.67306641 0.55931641 6.93359375 0.68359375 C9 1 9 1 10 2 C10.23287008 3.68183948 10.41264166 5.3712416 10.5625 7.0625 C10.64628906 7.98160156 10.73007812 8.90070313 10.81640625 9.84765625 C10.87699219 10.55792969 10.93757812 11.26820313 11 12 C6.545 11.01 6.545 11.01 2 10 C1.77213542 7.98177083 1.54427083 5.96354167 1.31640625 3.9453125 C1.08707039 1.92595684 1.08707039 1.92595684 0 0 Z " fill="#E7B442" transform="translate(873,250)"/>
<path d="M0 0 C3 0.25 3 0.25 5 2.25 C4.625 5.875 4.625 5.875 4 9.25 C-1.44736842 10.58157895 -1.44736842 10.58157895 -3.875 9.125 C-5.3568671 6.65522151 -5.3633156 5.08386167 -5 2.25 C-3 0.25 -3 0.25 0 0 Z " fill="#1D1D1D" transform="translate(126,157.75)"/>
<path d="M0 0 C0.66 0.66 1.32 1.32 2 2 C-0.48454089 6.78504172 -2.47951843 9.86077669 -7 13 C-1.41208157 16.80626328 4.24406875 20.37107089 10.12890625 23.703125 C10.74636719 24.13109375 11.36382813 24.5590625 12 25 C12 25.66 12 26.32 12 27 C7.33751086 25.31784705 3.16580137 22.94630388 -1.125 20.5 C-1.84042969 20.09652344 -2.55585937 19.69304687 -3.29296875 19.27734375 C-6.26640058 17.59332535 -9.15408274 15.89727817 -12 14 C-11.30132813 13.40832031 -10.60265625 12.81664062 -9.8828125 12.20703125 C-8.97273437 11.41683594 -8.06265625 10.62664062 -7.125 9.8125 C-6.22007812 9.03519531 -5.31515625 8.25789063 -4.3828125 7.45703125 C-2.00413905 5.00426797 -0.99809514 3.22946877 0 0 Z " fill="#0B0704" transform="translate(951,312)"/>
<path d="M0 0 C0.66 0.66 1.32 1.32 2 2 C1.566875 2.70382813 1.13375 3.40765625 0.6875 4.1328125 C-3.9212884 12.30487711 -4.74242435 18.70594708 -4 28 C-4.99 28 -5.98 28 -7 28 C-9.69614817 19.91155548 -7.52612823 12.51684768 -4 5 C-1.75 1.8125 -1.75 1.8125 0 0 Z " fill="#D2A73B" transform="translate(780,244)"/>
<path d="M0 0 C0.33 0.66 0.66 1.32 1 2 C0.0390625 4.2421875 0.0390625 4.2421875 -1.375 6.875 C-4.38837347 12.51455371 -5.12673539 16.32646139 -5.0625 22.75 C-5.05347656 23.92046875 -5.04445313 25.0909375 -5.03515625 26.296875 C-5.02355469 27.18890625 -5.01195312 28.0809375 -5 29 C-4.28432861 28.83250244 -3.56865723 28.66500488 -2.83129883 28.49243164 C0.00393764 27.99931515 2.43292216 27.9701538 5.30078125 28.12109375 C6.27724609 28.16943359 7.25371094 28.21777344 8.25976562 28.26757812 C9.26716797 28.32365234 10.27457031 28.37972656 11.3125 28.4375 C12.85260742 28.51581055 12.85260742 28.51581055 14.42382812 28.59570312 C16.94956087 28.72492666 19.47485261 28.85987291 22 29 C22 29.33 22 29.66 22 30 C12.76 30 3.52 30 -6 30 C-8.6825615 24.634877 -7.65188207 15.56880261 -6.2109375 9.890625 C-4.65829838 5.88457902 -3.21250065 2.90873984 0 0 Z " fill="#070502" transform="translate(778,244)"/>
<path d="M0 0 C1.17046875 0.01804688 2.3409375 0.03609375 3.546875 0.0546875 C4.88492188 0.08949219 4.88492188 0.08949219 6.25 0.125 C5.92 1.445 5.59 2.765 5.25 4.125 C4.60933594 4.07859375 3.96867187 4.0321875 3.30859375 3.984375 C-1.27082808 3.79328139 -4.67351145 3.68230791 -8.625 6.1875 C-11.75 8.125 -11.75 8.125 -14.1875 7.875 C-14.703125 7.6275 -15.21875 7.38 -15.75 7.125 C-10.4567591 1.53769016 -7.75030734 -0.15500615 0 0 Z " fill="#0D0D0D" transform="translate(126.75,143.875)"/>
<path d="M0 0 C1.875 0.125 1.875 0.125 4 1 C4.66666667 3 5.33333333 5 6 7 C8.18096612 7.95417268 9.64182234 8 12 8 C12.33 8.66 12.66 9.32 13 10 C14.98 10 16.96 10 19 10 C19.66 11.32 20.32 12.64 21 14 C19.741875 14.04125 18.48375 14.0825 17.1875 14.125 C16.47980469 14.14820313 15.77210938 14.17140625 15.04296875 14.1953125 C13 14 13 14 10 12 C8.45980068 11.45417498 6.91802128 10.91279569 5.375 10.375 C2.96484375 9.3515625 2.96484375 9.3515625 1 8 C-0.13885864 5.12809561 -0.05259278 3.15556694 0 0 Z " fill="#C95658" transform="translate(835,256)"/>
<path d="M0 0 C5.18692945 2.37116775 7.43784051 6.11218806 10 11 C11.09506492 14.28519475 11.09960608 16.73663415 11.0625 20.1875 C11.05347656 21.27417969 11.04445312 22.36085937 11.03515625 23.48046875 C11.02355469 24.31191406 11.01195312 25.14335937 11 26 C10.34 26 9.68 26 9 26 C8.98582031 25.31035156 8.97164062 24.62070313 8.95703125 23.91015625 C8.47546905 14.42207937 5.20801094 8.12771626 -1 1 C-0.67 0.67 -0.34 0.34 0 0 Z " fill="#0A0B0D" transform="translate(162,222)"/>
<path d="M0 0 C0.33 0.99 0.66 1.98 1 3 C0.01 3.8971875 0.01 3.8971875 -1 4.8125 C-3.3373846 6.87501834 -3.3373846 6.87501834 -3 10 C-1.5459375 10.928125 -1.5459375 10.928125 -0.0625 11.875 C3 14 3 14 3.875 16.75 C3.936875 17.86375 3.936875 17.86375 4 19 C9.80782636 17.73532894 9.80782636 17.73532894 15 15 C13.25 18.875 13.25 18.875 11 20 C8.6670134 20.04022391 6.33293334 20.04320247 4 20 C4.33 21.32 4.66 22.64 5 24 C4.34 24 3.68 24 3 24 C2.84144531 23.39671875 2.68289063 22.7934375 2.51953125 22.171875 C0.92510239 16.71029549 -0.47211264 14.54888469 -5 11 C-5.625 8.0625 -5.625 8.0625 -5 5 C-2.5 2.125 -2.5 2.125 0 0 Z " fill="#19110F" transform="translate(863,161)"/>
<path d="M0 0 C1.2375 0.1546875 1.2375 0.1546875 2.5 0.3125 C4.5 3.3125 4.5 3.3125 4.25 5.375 C3.5 7.3125 3.5 7.3125 1.5 9.3125 C-3.05555556 8.75694444 -3.05555556 8.75694444 -4.5 7.3125 C-4.6875 4.875 -4.6875 4.875 -4.5 2.3125 C-2.5 0.3125 -2.5 0.3125 0 0 Z " fill="#3E454E" transform="translate(160.5,298.6875)"/>
<path d="M0 0 C2.64 0.33 5.28 0.66 8 1 C7.67 2.65 7.34 4.3 7 6 C4.525 5.01 4.525 5.01 2 4 C2 9.28 2 14.56 2 20 C1.01 20 0.02 20 -1 20 C-1.11381955 13.23405981 -0.88021369 6.71162938 0 0 Z " fill="#060707" transform="translate(134,234)"/>
<path d="M0 0 C-0.33 0.99 -0.66 1.98 -1 3 C-3.73753153 3.89553822 -6.32223072 4.58523269 -9.125 5.1875 C-10.24648437 5.45336914 -10.24648437 5.45336914 -11.390625 5.72460938 C-16.03141357 6.77161655 -20.24634754 7.18283279 -25 7 C-25 6.34 -25 5.68 -25 5 C-21.58511508 4.15924782 -18.16782787 3.32870007 -14.75 2.5 C-13.78191406 2.26152344 -12.81382812 2.02304688 -11.81640625 1.77734375 C-10.88183594 1.55175781 -9.94726562 1.32617188 -8.984375 1.09375 C-8.12553711 0.88427734 -7.26669922 0.67480469 -6.38183594 0.45898438 C-4 0 -4 0 0 0 Z " fill="#060607" transform="translate(148,197)"/>
<path d="M0 0 C1.875 0.6875 1.875 0.6875 4 2 C4.7211874 3.64380989 5.39401025 5.31032588 6 7 C5.21496094 6.96519531 4.42992187 6.93039063 3.62109375 6.89453125 C-2.77166754 6.72980979 -7.35551571 6.92119039 -13 10 C-13.66 9.34 -14.32 8.68 -15 8 C-14.00097656 7.50628906 -13.00195312 7.01257813 -11.97265625 6.50390625 C-10.6692186 5.85687605 -9.36583602 5.20973489 -8.0625 4.5625 C-7.40314453 4.23701172 -6.74378906 3.91152344 -6.06445312 3.57617188 C-2.81709965 2.10888654 -2.81709965 2.10888654 0 0 Z " fill="#E26163" transform="translate(928,187)"/>
<path d="M0 0 C0 3.39593478 -0.52165948 4.06619881 -2.5 6.6875 C-2.9640625 7.31011719 -3.428125 7.93273437 -3.90625 8.57421875 C-4.2671875 9.04472656 -4.628125 9.51523438 -5 10 C-2.36 10.33 0.28 10.66 3 11 C3.433125 10.071875 3.433125 10.071875 3.875 9.125 C5 7 5 7 7 5 C6.40072174 8.35595828 5.15377564 10.37801226 3 13 C-0.46941546 12.54177532 -3.67395049 12.10868317 -7 11 C-7.33 11.99 -7.66 12.98 -8 14 C-9.32 13.67 -10.64 13.34 -12 13 C-11.319375 12.34 -10.63875 11.68 -9.9375 11 C-6.43274653 7.50531766 -3.22778212 3.74869221 0 0 Z " fill="#2C1D0E" transform="translate(870,122)"/>
<path d="M0 0 C1.35439668 2.70879335 1.06501451 5.00933268 1 8 C-10.52164009 4.92482916 -10.52164009 4.92482916 -16 3 C-16 2.67 -16 2.34 -16 2 C-15.24074219 2.02320313 -14.48148438 2.04640625 -13.69921875 2.0703125 C-12.20841797 2.09738281 -12.20841797 2.09738281 -10.6875 2.125 C-9.20830078 2.15980469 -9.20830078 2.15980469 -7.69921875 2.1953125 C-4.52519098 1.96564334 -3.07421688 0 0 0 Z " fill="#DA5D5F" transform="translate(873,268)"/>
<path d="M0 0 C7.12608999 0.29754029 12.6672508 1.71125344 19 5 C18.67 5.99 18.34 6.98 18 8 C17.34773438 7.72285156 16.69546875 7.44570312 16.0234375 7.16015625 C10.40307324 4.83042686 10.40307324 4.83042686 4.5 3.4375 C3.2625 3.2209375 3.2625 3.2209375 2 3 C1.34 2.01 0.68 1.02 0 0 Z " fill="#13181D" transform="translate(143,216)"/>
<path d="M0 0 C1.32 0 2.64 0 4 0 C4 0.66 4 1.32 4 2 C6.64 2.66 9.28 3.32 12 4 C12 5.32 12 6.64 12 8 C7.6305794 7.74297526 5.48177009 7.39976667 2.0625 4.5625 C0 2 0 2 0 0 Z " fill="#151515" transform="translate(115,167)"/>
<path d="M0 0 C-0.60753025 3.40216938 -1.95154472 5.26872629 -4 8 C-4.70514846 10.14733927 -4.70514846 10.14733927 -5 12 C-5.99 12 -6.98 12 -8 12 C-8.34740318 9.08181329 -8.50109494 6.86234943 -6.9921875 4.265625 C-3.6 0 -3.6 0 0 0 Z " fill="#121212" transform="translate(122,152)"/>
<path d="M0 0 C5.72992618 0.50342802 9.93964482 2.83132463 14.875 5.5625 C15.65875 5.98724609 16.4425 6.41199219 17.25 6.84960938 C19.17100387 7.89210538 21.0873249 8.94232445 23 10 C23 10.66 23 11.32 23 12 C20.03 11.01 17.06 10.02 14 9 C14 8.34 14 7.68 14 7 C13.360625 6.7525 12.72125 6.505 12.0625 6.25 C8.00011649 4.59188428 4.00275094 2.7964416 0 1 C0 0.67 0 0.34 0 0 Z " fill="#322011" transform="translate(846,237)"/>
<path d="M0 0 C0.99 0 1.98 0 3 0 C2.7589852 6.14587738 2.7589852 6.14587738 0.59765625 8.578125 C-0.88046971 9.78844931 -2.43647953 10.90220903 -4 12 C-4.33 10.68 -4.66 9.36 -5 8 C-4.01 7.67 -3.02 7.34 -2 7 C-0.77030122 3.48809191 -0.77030122 3.48809191 0 0 Z " fill="#0D0D0C" transform="translate(135,162)"/>
<path d="M0 0 C4.4571874 0.26218749 6.51522698 0.57711289 9.9375 3.5625 C10.618125 4.366875 11.29875 5.17125 12 6 C11.67 6.66 11.34 7.32 11 8 C10.01 8 9.02 8 8 8 C6.66666667 6.66666667 5.33333333 5.33333333 4 4 C1.8618034 3.2127322 1.8618034 3.2127322 0 3 C0 2.01 0 1.02 0 0 Z " fill="#0B0B0B" transform="translate(125,151)"/>
<path d="M0 0 C2 2 2 2 3 5 C5.46429795 7.11660159 8.0499611 9.02148174 10.65234375 10.96484375 C12.90456265 12.91726646 13.92778339 14.26125243 15 17 C11.1723871 15.36870784 8.35550891 12.92741328 5.25 10.1875 C3.77273438 8.90939453 3.77273438 8.90939453 2.265625 7.60546875 C0 5 0 5 -0.328125 2.17578125 C-0.21984375 1.45777344 -0.1115625 0.73976562 0 0 Z " fill="#130F05" transform="translate(926,155)"/>
<path d="M0 0 C2.67456717 0.37792797 3.80611814 0.79766916 5.703125 2.77734375 C6.21359375 3.49019531 6.7240625 4.20304688 7.25 4.9375 C7.77078125 5.64777344 8.2915625 6.35804688 8.828125 7.08984375 C10 9 10 9 10 11 C7.00779732 9.63629701 4.70973471 8.05091917 2.25 5.875 C1.63640625 5.33617187 1.0228125 4.79734375 0.390625 4.2421875 C-0.06828125 3.83226562 -0.5271875 3.42234375 -1 3 C-0.67 2.01 -0.34 1.02 0 0 Z " fill="#DB9548" transform="translate(926,245)"/>
<path d="M0 0 C0.77085937 -0.01417969 1.54171875 -0.02835938 2.3359375 -0.04296875 C4.84334888 0.20948393 6.45761902 0.93556533 8.625 2.1875 C7.72136719 2.32027344 6.81773437 2.45304688 5.88671875 2.58984375 C4.11748047 2.85474609 4.11748047 2.85474609 2.3125 3.125 C0.55486328 3.38603516 0.55486328 3.38603516 -1.23828125 3.65234375 C-4.39141403 4.10843031 -4.39141403 4.10843031 -7.375 5.1875 C-7 3.25 -7 3.25 -6.375 1.1875 C-4.04904054 0.02452027 -2.58776769 0.02149309 0 0 Z " fill="#1D0F0B" transform="translate(851.375,243.8125)"/>
<path d="M0 0 C0.99 0.33 1.98 0.66 3 1 C4.1875 3.5625 4.1875 3.5625 5 6 C2.36 6.33 -0.28 6.66 -3 7 C-2.625 4.0625 -2.625 4.0625 -2 1 C-1.34 0.67 -0.68 0.34 0 0 Z " fill="#BF2E2A" transform="translate(118,130)"/>
<path d="M0 0 C0.33 0 0.66 0 1 0 C1 1.65 1 3.3 1 5 C1.66 5 2.32 5 3 5 C2.745504 6.48206495 2.47088238 7.96068615 2.1875 9.4375 C2.03667969 10.26121094 1.88585937 11.08492187 1.73046875 11.93359375 C1.48941406 12.61550781 1.24835938 13.29742187 1 14 C0.01 14.33 -0.98 14.66 -2 15 C-1.34 10.05 -0.68 5.1 0 0 Z " fill="#1C232C" transform="translate(170,243)"/>
<path d="M0 0 C1.32 0 2.64 0 4 0 C4 2.31 4 4.62 4 7 C2.68 7.33 1.36 7.66 0 8 C0 5.36 0 2.72 0 0 Z " fill="#130D0C" transform="translate(872,157)"/>
<path d="M0 0 C0.66 0.66 1.32 1.32 2 2 C-0.84990486 7.81380592 -3.53304842 10.53058842 -9 14 C-9.33 13.34 -9.66 12.68 -10 12 C-9.44570313 11.55269531 -8.89140625 11.10539062 -8.3203125 10.64453125 C-2.85867455 6.25111429 -2.85867455 6.25111429 0 0 Z " fill="#2F210E" transform="translate(951,312)"/>
<path d="M0 0 C1.670625 0.061875 1.670625 0.061875 3.375 0.125 C4.035 1.445 4.695 2.765 5.375 4.125 C4.116875 4.16625 2.85875 4.2075 1.5625 4.25 C0.85480469 4.27320313 0.14710938 4.29640625 -0.58203125 4.3203125 C-2.625 4.125 -2.625 4.125 -5.625 2.125 C-3.625 0.125 -3.625 0.125 0 0 Z " fill="#823938" transform="translate(850.625,265.875)"/>
<path d="M0 0 C0.66 0 1.32 0 2 0 C2.125 7.75 2.125 7.75 1 10 C0.34 10 -0.32 10 -1 10 C-0.67 6.7 -0.34 3.4 0 0 Z " fill="#030303" transform="translate(160,246)"/>
<path d="M0 0 C3.3 0.33 6.6 0.66 10 1 C10 1.99 10 2.98 10 4 C8.72125 3.896875 7.4425 3.79375 6.125 3.6875 C5.04605469 3.60048828 5.04605469 3.60048828 3.9453125 3.51171875 C2 3 2 3 0 0 Z " fill="#26292D" transform="translate(143,216)"/>
<path d="M0 0 C-0.33 0.99 -0.66 1.98 -1 3 C-3.31 3.33 -5.62 3.66 -8 4 C-8 3.01 -8 2.02 -8 1 C-5.10765685 0.17361624 -3.11257569 0 0 0 Z " fill="#0C0D0E" transform="translate(148,197)"/>
<path d="M0 0 C0.66 0.33 1.32 0.66 2 1 C2 2.32 2 3.64 2 5 C1.34 5 0.68 5 0 5 C-0.66 6.32 -1.32 7.64 -2 9 C-2.33 8.34 -2.66 7.68 -3 7 C-2.06421005 4.64018187 -1.06652192 2.30368736 0 0 Z " fill="#211A09" transform="translate(865,256)"/>
<path d="M0 0 C0.66 0 1.32 0 2 0 C2 3.96 2 7.92 2 12 C1.67 12 1.34 12 1 12 C0.7834375 10.63875 0.7834375 10.63875 0.5625 9.25 C0.08075461 6.14616764 0.08075461 6.14616764 -0.625 3.75 C-1 2 -1 2 0 0 Z " fill="#1C1608" transform="translate(855,254)"/>
<path d="M0 0 C0 0.99 0 1.98 0 3 C-3 5.1875 -3 5.1875 -6 7 C-6 4 -6 4 -4.125 1.8125 C-2 0 -2 0 0 0 Z " fill="#0A0C0E" transform="translate(132,221)"/>
<path d="M0 0 C0.66 0 1.32 0 2 0 C2.33 2.64 2.66 5.28 3 8 C2.01 8 1.02 8 0 8 C0 5.36 0 2.72 0 0 Z " fill="#ECBB42" transform="translate(773,264)"/>
<path d="M0 0 C0 0.66 0 1.32 0 2 C-3 3 -3 3 -7 3 C-7.33 2.34 -7.66 1.68 -8 1 C-8.66 0.67 -9.32 0.34 -10 0 C-6.7169902 -1.6415049 -3.57454967 -0.51888624 0 0 Z " fill="#44221C" transform="translate(890,280)"/>
</svg>
